<svg width="211" height="51" viewBox="0 0 211 51" fill="none" xmlns="http://www.w3.org/2000/svg">
<mask id="mask0_72_671" style="mask-type:luminance" maskUnits="userSpaceOnUse" x="0" y="0" width="211" height="51">
<path d="M211 -9.53674e-06H0V50.0425H211V-9.53674e-06Z" fill="white"/>
</mask>
<g mask="url(#mask0_72_671)">
<mask id="mask1_72_671" style="mask-type:luminance" maskUnits="userSpaceOnUse" x="0" y="0" width="211" height="38">
<path d="M0.36628 0.0977058H210.888V37.7185H0.36628V0.0977058Z" fill="white"/>
</mask>
<g mask="url(#mask1_72_671)">
<mask id="mask2_72_671" style="mask-type:luminance" maskUnits="userSpaceOnUse" x="0" y="0" width="211" height="38">
<path d="M211 -5.91278e-05H6.86646e-05V37.7185H211V-5.91278e-05Z" fill="white"/>
</mask>
<g mask="url(#mask2_72_671)">
<path d="M4.02152 27.8286C3.61597 27.8286 3.30963 27.7236 3.09956 27.5135C2.8895 27.3034 2.78446 26.9971 2.78446 26.5915V9.72204C2.78446 9.32233 2.8895 9.01598 3.09956 8.80591C3.30963 8.59585 3.61597 8.49081 4.02152 8.49081H9.31402C12.4417 8.49081 14.8545 9.31357 16.5555 10.9591C18.255 12.6046 19.1055 15.0014 19.1055 18.148C19.1055 19.7206 18.8896 21.105 18.4577 22.3027C18.0289 23.5018 17.3957 24.5128 16.5555 25.337C15.7152 26.1583 14.6897 26.7783 13.4803 27.1984C12.2739 27.6185 10.8851 27.8286 9.31402 27.8286H4.02152ZM5.03101 25.9088H9.15064C10.43 25.9088 11.5401 25.7454 12.4825 25.4187C13.4234 25.089 14.2097 24.6047 14.8399 23.9657C15.4701 23.3238 15.9399 22.5157 16.2521 21.5383C16.5628 20.558 16.7189 19.4289 16.7189 18.148C16.7189 15.5689 16.0857 13.636 14.8224 12.3479C13.562 11.0568 11.6714 10.4106 9.15064 10.4106H5.03101V25.9088Z" fill="#EDF8F8"/>
<path d="M21.9017 28.0212C21.5355 28.0212 21.2554 27.919 21.0614 27.7177C20.8703 27.5164 20.7755 27.2319 20.7755 26.8658V15.4288C20.7755 15.0641 20.8659 14.7855 21.0497 14.5944C21.2321 14.4004 21.499 14.3027 21.8492 14.3027C22.1949 14.3027 22.4633 14.4004 22.6544 14.5944C22.8484 14.7855 22.9462 15.0641 22.9462 15.4288V17.652H22.6719C22.9637 16.5755 23.5195 15.7439 24.3408 15.1604C25.165 14.574 26.1803 14.2604 27.3867 14.221C27.6624 14.2064 27.8827 14.2662 28.0461 14.4019C28.2095 14.539 28.2999 14.7724 28.3204 15.1021C28.3393 15.4143 28.2649 15.6608 28.0986 15.8431C27.9352 16.0269 27.68 16.1349 27.3342 16.1699L26.8966 16.2224C25.6508 16.3362 24.6938 16.7345 24.0257 17.4186C23.3605 18.1043 23.0279 19.0408 23.0279 20.2312V26.8658C23.0279 27.2319 22.9301 27.5164 22.7361 27.7177C22.545 27.919 22.2664 28.0212 21.9017 28.0212Z" fill="#EDF8F8"/>
<path d="M29.0355 27.9394C28.5759 27.9394 28.2083 27.7979 27.9326 27.5135C27.6598 27.2305 27.5241 26.8687 27.5241 26.4281C27.5241 25.989 27.6598 25.6287 27.9326 25.3486C28.2083 25.0656 28.5759 24.9226 29.0355 24.9226C29.4906 24.9226 29.8495 25.0656 30.115 25.3486C30.379 25.6287 30.5118 25.989 30.5118 26.4281C30.5118 26.8687 30.379 27.2305 30.115 27.5135C29.8495 27.7979 29.4906 27.9394 29.0355 27.9394Z" fill="#EDF8F8"/>
<path d="M46.8666 28.1028C44.7265 28.1028 42.9191 27.7002 41.4457 26.8949C39.9752 26.0897 38.8549 24.9489 38.0846 23.4697C37.3173 21.9875 36.9351 20.2311 36.9351 18.2005C36.9351 16.6644 37.1583 15.2829 37.6061 14.0575C38.0525 12.8321 38.7002 11.7862 39.5493 10.9182C40.4012 10.0517 41.4399 9.38356 42.6652 8.91674C43.8906 8.44993 45.2809 8.21652 46.8374 8.21652C47.86 8.21652 48.887 8.34198 49.9184 8.58997C50.9527 8.83505 51.9271 9.24935 52.8418 9.83287C53.1525 10.0356 53.3582 10.2822 53.4603 10.5739C53.561 10.8657 53.5741 11.1633 53.5012 11.4667C53.4268 11.7672 53.2882 12.0269 53.0869 12.2486C52.8885 12.4674 52.6376 12.6031 52.3341 12.6571C52.0336 12.7125 51.701 12.6396 51.3363 12.4412C50.639 12.0371 49.9359 11.7439 49.224 11.5601C48.5121 11.3777 47.7156 11.2858 46.8374 11.2858C45.4836 11.2858 44.3399 11.5572 43.4063 12.0969C42.4756 12.6381 41.7783 13.42 41.3115 14.4427C40.8447 15.4667 40.6113 16.7184 40.6113 18.2005C40.6113 20.45 41.1496 22.1597 42.2276 23.3296C43.3086 24.501 44.9089 25.086 47.03 25.086C47.7608 25.086 48.5004 25.0145 49.2473 24.8701C49.9971 24.7228 50.7309 24.52 51.4472 24.2633L50.7586 25.8271V19.9861H47.7419C47.2867 19.9861 46.9337 19.8679 46.6857 19.6301C46.4406 19.3894 46.3181 19.0685 46.3181 18.6673C46.3181 18.2472 46.4406 17.9292 46.6857 17.7104C46.9337 17.4886 47.2867 17.3777 47.7419 17.3777H52.2699C52.7251 17.3777 53.0752 17.5032 53.3203 17.7512C53.5683 17.9963 53.6937 18.3464 53.6937 18.8015V25.4711C53.6937 25.8723 53.615 26.2107 53.4603 26.4865C53.3042 26.7593 53.0533 26.9591 52.7076 27.0875C51.9023 27.3792 50.9775 27.6229 49.9359 27.8169C48.8928 28.0065 47.8702 28.1028 46.8666 28.1028Z" fill="#EDF8F8"/>
<path d="M60.2234 28.1028C59.106 28.1028 58.1825 27.8956 57.4517 27.4843C56.7194 27.0729 56.1752 26.4558 55.8178 25.6345C55.459 24.8103 55.281 23.7848 55.281 22.5594V15.9248C55.281 15.3383 55.4269 14.9036 55.7186 14.6235C56.0133 14.3405 56.4364 14.1976 56.9849 14.1976C57.5334 14.1976 57.9564 14.3405 58.2569 14.6235C58.5604 14.9036 58.7121 15.3383 58.7121 15.9248V22.6177C58.7121 23.5674 58.9046 24.272 59.2898 24.7301C59.6749 25.1852 60.2876 25.4128 61.1278 25.4128C62.0411 25.4128 62.7909 25.0977 63.3744 24.4675C63.9608 23.8373 64.2555 23.0014 64.2555 21.9584V15.9248C64.2555 15.3383 64.4014 14.9036 64.6931 14.6235C64.9849 14.3405 65.405 14.1976 65.9535 14.1976C66.502 14.1976 66.9251 14.3405 67.2256 14.6235C67.529 14.9036 67.6807 15.3383 67.6807 15.9248V26.2939C67.6807 27.4653 67.1235 28.0503 66.0119 28.0503C65.478 28.0503 65.0666 27.8986 64.7748 27.5951C64.4831 27.2917 64.3372 26.8584 64.3372 26.2939V24.2049L64.7223 25.0277C64.3372 26.0167 63.7551 26.7767 62.9776 27.3092C62.1986 27.8373 61.281 28.1028 60.2234 28.1028Z" fill="#EDF8F8"/>
<path d="M74.0997 28.1028C73.3134 28.1028 72.4804 28.0182 71.6022 27.8519C70.7269 27.6885 69.9407 27.407 69.2448 27.0058C68.953 26.8235 68.7459 26.609 68.6263 26.3639C68.5096 26.1159 68.4644 25.8679 68.4921 25.6229C68.5183 25.3749 68.6102 25.159 68.7663 24.9752C68.921 24.7928 69.1223 24.6747 69.3673 24.6192C69.6153 24.5652 69.8867 24.6105 70.1784 24.7534C70.9093 25.1035 71.5935 25.3472 72.2324 25.4828C72.8743 25.62 73.5059 25.6871 74.1289 25.6871C75.0041 25.6871 75.6548 25.5383 76.0836 25.2377C76.5154 24.9343 76.7313 24.5361 76.7313 24.0415C76.7313 23.6214 76.5884 23.299 76.3054 23.0729C76.0253 22.8439 75.6008 22.6732 75.0333 22.5594L72.2908 22.0401C71.1544 21.8227 70.2893 21.4084 69.6941 20.7972C69.1018 20.183 68.8072 19.3909 68.8072 18.4223C68.8072 17.5441 69.0479 16.7855 69.5307 16.1465C70.0165 15.5047 70.689 15.0116 71.5497 14.6644C72.4089 14.3143 73.3965 14.1392 74.514 14.1392C75.3149 14.1392 76.0676 14.2268 76.7722 14.4018C77.4753 14.5769 78.158 14.8482 78.8203 15.2129C79.0917 15.3573 79.2784 15.5484 79.3805 15.7848C79.4812 16.0225 79.5045 16.2662 79.4505 16.5142C79.3951 16.7592 79.2842 16.9795 79.1179 17.1735C78.9545 17.3646 78.7474 17.4828 78.4994 17.5295C78.2543 17.5762 77.9757 17.5266 77.665 17.3778C77.096 17.086 76.5519 16.8759 76.0311 16.7476C75.5089 16.6192 75.0114 16.555 74.5373 16.555C73.6416 16.555 72.9793 16.7111 72.5475 17.0218C72.1186 17.334 71.9056 17.7439 71.9056 18.253C71.9056 18.6382 72.034 18.9591 72.2908 19.2158C72.5475 19.4726 72.9399 19.6462 73.4695 19.7352L76.212 20.2603C77.4024 20.4792 78.3025 20.8818 78.9137 21.4682C79.5278 22.0517 79.8357 22.838 79.8357 23.8256C79.8357 25.1604 79.3134 26.2064 78.2718 26.965C77.2288 27.7235 75.8386 28.1028 74.0997 28.1028Z" fill="#EDF8F8"/>
<path d="M86.5275 28.1028C85.3371 28.1028 84.3422 27.9015 83.5457 27.5018C82.7521 27.0977 82.1628 26.5083 81.7777 25.7337C81.3955 24.9562 81.2058 23.989 81.2058 22.8336V16.9926H79.7762C79.3356 16.9926 78.9972 16.8803 78.7609 16.6542C78.5246 16.4251 78.4049 16.1086 78.4049 15.703C78.4049 15.2829 78.5246 14.9649 78.7609 14.7461C78.9972 14.5243 79.3356 14.4135 79.7762 14.4135H81.2058V11.916C81.2058 11.3529 81.3546 10.924 81.6551 10.6323C81.9586 10.3376 82.3845 10.1888 82.933 10.1888C83.4815 10.1888 83.9017 10.3376 84.1934 10.6323C84.4852 10.924 84.6311 11.3529 84.6311 11.916V14.4135H87.5428C87.9775 14.4135 88.3145 14.5243 88.5523 14.7461C88.793 14.9649 88.9141 15.2829 88.9141 15.703C88.9141 16.1086 88.793 16.4251 88.5523 16.6542C88.3145 16.8803 87.9775 16.9926 87.5428 16.9926H84.6311V22.6469C84.6311 23.5222 84.8236 24.1801 85.2088 24.6192C85.5939 25.0598 86.2153 25.2786 87.076 25.2786C87.3867 25.2786 87.661 25.2523 87.8988 25.1969C88.1351 25.1429 88.3452 25.1064 88.529 25.086C88.7463 25.067 88.9272 25.1356 89.0716 25.2902C89.219 25.4463 89.2934 25.7614 89.2934 26.2355C89.2934 26.6017 89.2321 26.927 89.1125 27.21C88.9958 27.4945 88.7813 27.6914 88.4706 27.7994C88.2328 27.8723 87.9221 27.9409 87.537 28.0036C87.1548 28.0692 86.8193 28.1028 86.5275 28.1028Z" fill="#EDF8F8"/>
<path d="M93.2698 28.1028C92.3011 28.1028 91.4375 27.9161 90.679 27.5426C89.9204 27.1663 89.3252 26.6586 88.8934 26.0197C88.4645 25.3778 88.2515 24.6542 88.2515 23.849C88.2515 22.8657 88.5054 22.0853 89.0159 21.5091C89.5294 20.9299 90.3609 20.5142 91.5134 20.2603C92.6688 20.0036 94.2151 19.8752 96.1524 19.8752H97.5236V21.8475H96.1815C95.0451 21.8475 94.1392 21.9044 93.4623 22.0167C92.7855 22.1261 92.3041 22.3129 92.021 22.5769C91.741 22.8424 91.6009 23.2115 91.6009 23.6856C91.6009 24.2895 91.811 24.7826 92.2311 25.1677C92.6512 25.5528 93.2362 25.7454 93.9875 25.7454C94.59 25.7454 95.1254 25.6039 95.5922 25.3194C96.059 25.0364 96.4281 24.6469 96.7009 24.1524C96.9766 23.6593 97.1152 23.0933 97.1152 22.4544V19.2975C97.1152 18.3843 96.9124 17.7264 96.5083 17.3252C96.1071 16.9212 95.4303 16.7184 94.4777 16.7184C93.9481 16.7184 93.3763 16.7826 92.7621 16.9109C92.1509 17.0393 91.5076 17.2596 90.8307 17.5703C90.4835 17.7337 90.1771 17.7804 89.9087 17.7104C89.6432 17.6374 89.4375 17.4857 89.2902 17.2552C89.1458 17.0262 89.0743 16.7753 89.0743 16.5025C89.0743 16.2268 89.1458 15.9569 89.2902 15.6914C89.4375 15.4274 89.687 15.2304 90.0371 15.102C90.8774 14.7519 91.6855 14.5054 92.4645 14.361C93.2421 14.2136 93.9496 14.1392 94.5885 14.1392C95.9073 14.1392 96.9897 14.342 97.8387 14.7461C98.6907 15.1473 99.3267 15.7541 99.7468 16.5667C100.167 17.3807 100.377 18.4281 100.377 19.7118V26.2939C100.377 26.8585 100.238 27.2917 99.9627 27.5952C99.6899 27.8986 99.2975 28.0503 98.784 28.0503C98.2734 28.0503 97.8766 27.8986 97.5936 27.5952C97.3092 27.2917 97.1677 26.8585 97.1677 26.2939V24.9752H97.3894C97.261 25.617 97.0072 26.1714 96.6308 26.6382C96.2574 27.1021 95.7862 27.4609 95.2187 27.7177C94.6498 27.9744 94.0006 28.1028 93.2698 28.1028Z" fill="#EDF8F8"/>
<path d="M107.094 28.0503C106.639 28.0503 106.242 27.9307 105.904 27.6943C105.565 27.4536 105.285 27.086 105.063 26.5915L100.704 16.4733C100.541 16.0692 100.48 15.6943 100.524 15.3471C100.57 15.0014 100.735 14.7227 101.02 14.5127C101.303 14.3026 101.692 14.1976 102.187 14.1976C102.607 14.1976 102.945 14.2938 103.202 14.4835C103.459 14.6746 103.686 15.0364 103.885 15.5688L107.59 24.8118H106.767L110.578 15.5397C110.779 15.0262 111.012 14.6746 111.278 14.4835C111.542 14.2938 111.904 14.1976 112.363 14.1976C112.763 14.1976 113.082 14.3026 113.32 14.5127C113.561 14.7227 113.708 14.997 113.764 15.3354C113.818 15.6739 113.753 16.0444 113.571 16.4441L109.125 26.5915C108.926 27.086 108.658 27.4536 108.319 27.6943C107.981 27.9307 107.572 28.0503 107.094 28.0503Z" fill="#EDF8F8"/>
<path d="M119.906 28.1028C118.517 28.1028 117.309 27.8213 116.282 27.2567C115.258 26.6892 114.463 25.8796 113.895 24.8293C113.331 23.776 113.049 22.5346 113.049 21.1064C113.049 20.0299 113.208 19.067 113.528 18.218C113.846 17.3661 114.307 16.6352 114.911 16.024C115.513 15.4099 116.235 14.943 117.076 14.6236C117.919 14.3012 118.863 14.1392 119.906 14.1392C121.294 14.1392 122.499 14.4237 123.524 14.9912C124.551 15.5601 125.346 16.3654 125.91 17.4069C126.478 18.45 126.762 19.6827 126.762 21.1064C126.762 22.1889 126.602 23.159 126.284 24.0182C125.964 24.8789 125.502 25.6141 124.895 26.2239C124.291 26.8351 123.57 27.3019 122.73 27.6243C121.89 27.9424 120.947 28.1028 119.906 28.1028ZM119.906 25.4945C120.583 25.4945 121.175 25.3311 121.685 25.0043C122.199 24.6747 122.597 24.1845 122.882 23.5339C123.165 22.8847 123.308 22.0751 123.308 21.1064C123.308 19.6447 122.995 18.5536 122.374 17.8329C121.751 17.1093 120.928 16.7476 119.906 16.7476C119.229 16.7476 118.634 16.908 118.12 17.226C117.61 17.5455 117.213 18.0298 116.93 18.679C116.645 19.3296 116.504 20.1378 116.504 21.1064C116.504 22.5536 116.815 23.6477 117.437 24.3858C118.059 25.1254 118.882 25.4945 119.906 25.4945Z" fill="#EDF8F8"/>
<path d="M135.102 27.8286C134.498 27.8286 134.036 27.6696 133.713 27.3501C133.394 27.0277 133.235 26.5653 133.235 25.9613V10.3522C133.235 9.74975 133.394 9.28877 133.713 8.9693C134.036 8.65128 134.498 8.49081 135.102 8.49081H141.684C143.038 8.49081 144.189 8.69359 145.138 9.09767C146.091 9.49884 146.819 10.0751 147.321 10.8249C147.823 11.5718 148.074 12.4675 148.074 13.5091C148.074 14.6805 147.735 15.6681 147.058 16.4733C146.381 17.2786 145.457 17.8183 144.287 18.0897V17.6812C145.64 17.8796 146.692 18.3917 147.443 19.2159C148.193 20.0372 148.57 21.1065 148.57 22.4252C148.57 24.1451 147.988 25.4756 146.825 26.4165C145.665 27.3589 144.053 27.8286 141.987 27.8286H135.102ZM136.607 25.1677H141.544C142.788 25.1677 143.703 24.927 144.287 24.4442C144.873 23.9584 145.168 23.2305 145.168 22.2618C145.168 21.2742 144.873 20.5434 144.287 20.0678C143.703 19.5893 142.788 19.3501 141.544 19.3501H136.607V25.1677ZM136.607 16.6892H141.077C142.287 16.6892 143.187 16.4587 143.779 15.9949C144.374 15.528 144.672 14.838 144.672 13.9234C144.672 13.0102 144.374 12.3187 143.779 11.8519C143.187 11.3851 142.287 11.1517 141.077 11.1517H136.607V16.6892Z" fill="#EDF8F8"/>
<path d="M155.837 28.1028C154.448 28.1028 153.24 27.8213 152.213 27.2567C151.189 26.6892 150.394 25.8796 149.826 24.8293C149.262 23.776 148.98 22.5346 148.98 21.1064C148.98 20.0299 149.139 19.067 149.459 18.218C149.777 17.3661 150.238 16.6352 150.842 16.024C151.444 15.4099 152.166 14.943 153.007 14.6236C153.85 14.3012 154.794 14.1392 155.837 14.1392C157.225 14.1392 158.43 14.4237 159.454 14.9912C160.481 15.5601 161.276 16.3654 161.841 17.4069C162.408 18.45 162.693 19.6827 162.693 21.1064C162.693 22.1889 162.532 23.159 162.214 24.0182C161.895 24.8789 161.433 25.6141 160.826 26.2239C160.222 26.8351 159.501 27.3019 158.661 27.6243C157.821 27.9424 156.878 28.1028 155.837 28.1028ZM155.837 25.4945C156.513 25.4945 157.106 25.3311 157.616 25.0043C158.13 24.6747 158.528 24.1845 158.813 23.5339C159.096 22.8847 159.238 22.0751 159.238 21.1064C159.238 19.6447 158.926 18.5536 158.305 17.8329C157.682 17.1093 156.859 16.7476 155.837 16.7476C155.16 16.7476 154.565 16.908 154.051 17.226C153.54 17.5455 153.144 18.0298 152.861 18.679C152.576 19.3296 152.435 20.1378 152.435 21.1064C152.435 22.5536 152.745 23.6477 153.368 24.3858C153.99 25.1254 154.812 25.4945 155.837 25.4945Z" fill="#EDF8F8"/>
<path d="M169.47 28.1028C168.28 28.1028 167.285 27.9015 166.488 27.5018C165.695 27.0977 165.105 26.5083 164.72 25.7337C164.338 24.9562 164.149 23.989 164.149 22.8336V16.9926H162.719C162.278 16.9926 161.94 16.8803 161.704 16.6542C161.467 16.4251 161.348 16.1086 161.348 15.703C161.348 15.2829 161.467 14.9649 161.704 14.7461C161.94 14.5243 162.278 14.4135 162.719 14.4135H164.149V11.916C164.149 11.3529 164.297 10.924 164.598 10.6323C164.901 10.3376 165.327 10.1888 165.876 10.1888C166.424 10.1888 166.844 10.3376 167.136 10.6323C167.428 10.924 167.574 11.3529 167.574 11.916V14.4135H170.486C170.92 14.4135 171.257 14.5243 171.495 14.7461C171.736 14.9649 171.857 15.2829 171.857 15.703C171.857 16.1086 171.736 16.4251 171.495 16.6542C171.257 16.8803 170.92 16.9926 170.486 16.9926H167.574V22.6469C167.574 23.5222 167.766 24.1801 168.151 24.6192C168.537 25.0598 169.158 25.2786 170.019 25.2786C170.329 25.2786 170.604 25.2523 170.841 25.1969C171.078 25.1429 171.288 25.1064 171.472 25.086C171.689 25.067 171.87 25.1356 172.014 25.2902C172.162 25.4463 172.236 25.7614 172.236 26.2355C172.236 26.6017 172.175 26.927 172.055 27.21C171.938 27.4945 171.724 27.6914 171.413 27.7994C171.176 27.8723 170.865 27.9409 170.48 28.0036C170.097 28.0692 169.762 28.1028 169.47 28.1028Z" fill="#EDF8F8"/>
<path d="M178.275 28.1028C176.753 28.1028 175.445 27.8213 174.348 27.2567C173.251 26.6892 172.405 25.884 171.81 24.841C171.217 23.7994 170.923 22.5638 170.923 21.1356C170.923 19.7468 171.21 18.5317 171.786 17.4886C172.361 16.4471 173.158 15.6272 174.173 15.032C175.188 14.4368 176.344 14.1392 177.639 14.1392C178.592 14.1392 179.448 14.2953 180.206 14.6061C180.965 14.9182 181.613 15.3675 182.15 15.954C182.689 16.5375 183.102 17.2465 183.387 18.078C183.67 18.911 183.813 19.849 183.813 20.8905C183.813 21.2173 183.697 21.4682 183.468 21.6433C183.242 21.8183 182.917 21.9059 182.494 21.9059H173.689V19.9277H181.397L180.959 20.342C180.959 19.4988 180.834 18.7943 180.586 18.2297C180.341 17.6622 179.985 17.229 179.518 16.9285C179.054 16.625 178.475 16.4733 177.779 16.4733C177.009 16.4733 176.352 16.6527 175.813 17.0101C175.276 17.3646 174.864 17.8665 174.581 18.5156C174.297 19.1662 174.155 19.9379 174.155 20.8322V21.0247C174.155 22.5273 174.507 23.6477 175.212 24.3858C175.915 25.1254 176.953 25.4945 178.328 25.4945C178.802 25.4945 179.337 25.4361 179.932 25.3194C180.527 25.1998 181.089 24.9927 181.619 24.7009C182.004 24.4835 182.342 24.3887 182.634 24.415C182.926 24.4427 183.159 24.5477 183.334 24.7301C183.509 24.9139 183.614 25.1371 183.649 25.4011C183.684 25.6666 183.633 25.9365 183.498 26.2122C183.36 26.485 183.127 26.7228 182.797 26.9241C182.158 27.3253 181.423 27.6229 180.592 27.8169C179.759 28.0065 178.987 28.1028 178.275 28.1028Z" fill="#EDF8F8"/>
<path d="M190.722 33.0394C189.738 33.0394 188.782 32.9475 187.857 32.7651C186.935 32.5813 186.098 32.2983 185.348 31.9132C185.001 31.7294 184.768 31.5106 184.648 31.2538C184.531 31 184.493 30.7403 184.537 30.4719C184.584 30.2064 184.692 29.973 184.864 29.7717C185.039 29.5733 185.255 29.4362 185.512 29.3632C185.768 29.2888 186.034 29.3253 186.311 29.4741C187.112 29.8738 187.875 30.1349 188.598 30.256C189.322 30.3756 189.938 30.4369 190.448 30.4369C191.674 30.4369 192.591 30.1393 193.202 29.5441C193.816 28.9489 194.124 28.0649 194.124 26.8949V24.4267H194.375C194.098 25.3603 193.526 26.1072 192.66 26.6674C191.792 27.2246 190.807 27.5018 189.707 27.5018C188.501 27.5018 187.449 27.2246 186.55 26.6674C185.655 26.1072 184.96 25.3253 184.467 24.3216C183.977 23.3151 183.732 22.1436 183.732 20.8088C183.732 19.8023 183.872 18.892 184.152 18.078C184.435 17.2654 184.838 16.5667 185.36 15.9832C185.881 15.3967 186.511 14.943 187.25 14.6236C187.993 14.3012 188.811 14.1392 189.707 14.1392C190.842 14.1392 191.834 14.4193 192.683 14.9795C193.535 15.5368 194.089 16.272 194.346 17.1852L194.072 17.8738V15.9248C194.072 15.3573 194.221 14.927 194.521 14.6352C194.824 14.3435 195.24 14.1976 195.77 14.1976C196.318 14.1976 196.738 14.3435 197.03 14.6352C197.325 14.927 197.474 15.3573 197.474 15.9248V26.4865C197.474 28.6601 196.897 30.2968 195.746 31.3939C194.594 32.4909 192.919 33.0394 190.722 33.0394ZM190.641 24.8935C191.355 24.8935 191.968 24.7301 192.479 24.4033C192.992 24.0736 193.391 23.6024 193.675 22.9912C193.958 22.3771 194.101 21.6491 194.101 20.8088C194.101 19.5455 193.789 18.5536 193.167 17.8329C192.544 17.1093 191.703 16.7476 190.641 16.7476C189.929 16.7476 189.316 16.9139 188.803 17.2436C188.292 17.5703 187.895 18.0357 187.612 18.6382C187.328 19.2421 187.186 19.9657 187.186 20.8088C187.186 22.0692 187.497 23.0656 188.12 23.7965C188.741 24.5288 189.582 24.8935 190.641 24.8935Z" fill="#EDF8F8"/>
<path d="M203.394 28.1028C202.425 28.1028 201.561 27.9161 200.803 27.5426C200.044 27.1663 199.449 26.6586 199.017 26.0197C198.588 25.3778 198.375 24.6542 198.375 23.849C198.375 22.8657 198.629 22.0853 199.14 21.5091C199.653 20.9299 200.485 20.5142 201.637 20.2603C202.793 20.0036 204.339 19.8752 206.276 19.8752H207.647V21.8475H206.305C205.169 21.8475 204.263 21.9044 203.586 22.0167C202.909 22.1261 202.428 22.3129 202.145 22.5769C201.865 22.8424 201.725 23.2115 201.725 23.6856C201.725 24.2895 201.935 24.7826 202.355 25.1677C202.775 25.5528 203.36 25.7454 204.111 25.7454C204.714 25.7454 205.249 25.6039 205.716 25.3194C206.183 25.0364 206.552 24.6469 206.825 24.1524C207.1 23.6593 207.239 23.0933 207.239 22.4544V19.2975C207.239 18.3843 207.036 17.7264 206.632 17.3252C206.231 16.9212 205.554 16.7184 204.602 16.7184C204.072 16.7184 203.5 16.7826 202.886 16.9109C202.275 17.0393 201.631 17.2596 200.955 17.5703C200.607 17.7337 200.301 17.7804 200.033 17.7104C199.767 17.6374 199.561 17.4857 199.414 17.2552C199.27 17.0262 199.198 16.7753 199.198 16.5025C199.198 16.2268 199.27 15.9569 199.414 15.6914C199.561 15.4274 199.811 15.2304 200.161 15.102C201.001 14.7519 201.809 14.5054 202.588 14.361C203.366 14.2136 204.073 14.1392 204.712 14.1392C206.031 14.1392 207.114 14.342 207.963 14.7461C208.815 15.1473 209.451 15.7541 209.871 16.5667C210.291 17.3807 210.501 18.4281 210.501 19.7118V26.2939C210.501 26.8585 210.362 27.2917 210.087 27.5952C209.814 27.8986 209.421 28.0503 208.908 28.0503C208.397 28.0503 208.001 27.8986 207.718 27.5952C207.433 27.2917 207.292 26.8585 207.292 26.2939V24.9752H207.513C207.385 25.617 207.131 26.1714 206.755 26.6382C206.381 27.1021 205.91 27.4609 205.343 27.7177C204.774 27.9744 204.125 28.1028 203.394 28.1028Z" fill="#EDF8F8"/>
</g>
</g>
<mask id="mask3_72_671" style="mask-type:luminance" maskUnits="userSpaceOnUse" x="0" y="27" width="155" height="23">
<path d="M0.401222 27.2619H154.263V49.7273H0.401222V27.2619Z" fill="white"/>
</mask>
<g mask="url(#mask3_72_671)">
<mask id="mask4_72_671" style="mask-type:luminance" maskUnits="userSpaceOnUse" x="0" y="27" width="155" height="24">
<path d="M154.263 27.2619H0.401222V50.0424H154.263V27.2619Z" fill="white"/>
</mask>
<g mask="url(#mask4_72_671)">
<path d="M2.61251 44.0653C2.39807 44.0653 2.23614 44.0069 2.12819 43.8902C2.01878 43.7706 1.96481 43.6028 1.96481 43.3884V36.6196C1.96481 36.4022 2.01878 36.2374 2.12819 36.1236C2.23614 36.0069 2.39223 35.9485 2.595 35.9485C2.80069 35.9485 2.9597 36.0069 3.07349 36.1236C3.19019 36.2374 3.24854 36.4022 3.24854 36.6196V38.0434L3.06765 37.8158C3.27334 37.2133 3.60595 36.7465 4.06547 36.4153C4.52353 36.0857 5.07495 35.9193 5.71682 35.9193C6.38495 35.9193 6.92762 36.0798 7.34484 36.3978C7.76059 36.7173 8.04068 37.2133 8.1851 37.8858H7.94003C8.13405 37.2789 8.4827 36.8005 8.98452 36.4504C9.48927 36.0973 10.0772 35.9193 10.7467 35.9193C11.3419 35.9193 11.8321 36.0346 12.2172 36.2636C12.6023 36.4897 12.8912 36.8326 13.0867 37.2906C13.2807 37.7501 13.3784 38.3322 13.3784 39.0353V43.3884C13.3784 43.6028 13.3201 43.7706 13.2034 43.8902C13.0896 44.0069 12.9262 44.0653 12.7132 44.0653C12.5061 44.0653 12.3456 44.0069 12.2289 43.8902C12.1151 43.7706 12.0597 43.6028 12.0597 43.3884V39.0995C12.0597 38.376 11.9342 37.845 11.6862 37.5065C11.4368 37.1652 11.0152 36.993 10.42 36.993C9.76935 36.993 9.25878 37.2177 8.88533 37.6641C8.51479 38.1119 8.33098 38.7202 8.33098 39.4905V43.3884C8.33098 43.6028 8.27263 43.7706 8.15593 43.8902C8.04214 44.0069 7.8773 44.0653 7.65994 44.0653C7.45717 44.0653 7.29816 44.0069 7.18145 43.8902C7.06767 43.7706 7.01223 43.6028 7.01223 43.3884V39.0995C7.01223 38.376 6.88386 37.845 6.62711 37.5065C6.37328 37.1652 5.95607 36.993 5.37255 36.993C4.72193 36.993 4.21135 37.2177 3.8379 37.6641C3.46445 38.1119 3.27772 38.7202 3.27772 39.4905V43.3884C3.27772 43.8406 3.05598 44.0653 2.61251 44.0653Z" fill="#EDF8F8"/>
<path d="M18.1674 44.1003C17.33 44.1003 16.6123 43.9354 16.0142 43.6043C15.4146 43.2746 14.9493 42.8078 14.6196 42.2039C14.2884 41.597 14.1236 40.872 14.1236 40.0273C14.1236 39.2031 14.2841 38.4854 14.6079 37.8742C14.9347 37.2644 15.3811 36.7859 15.95 36.4387C16.5175 36.093 17.1754 35.9194 17.9223 35.9194C18.4504 35.9194 18.9259 36.0098 19.3461 36.1878C19.7691 36.3672 20.1295 36.624 20.4256 36.958C20.7246 37.2936 20.9522 37.6991 21.1083 38.1776C21.2673 38.6531 21.3475 39.1871 21.3475 39.7823C21.3475 39.9573 21.2979 40.0857 21.2017 40.1674C21.1039 40.2462 20.9639 40.2841 20.7815 40.2841H15.1272V39.4263H20.4723L20.2097 39.6364C20.2097 39.0529 20.1222 38.5598 19.9471 38.1542C19.775 37.7458 19.5241 37.4351 19.1944 37.2206C18.8632 37.0033 18.4504 36.8938 17.9573 36.8938C17.4044 36.8938 16.9362 37.0222 16.551 37.279C16.1659 37.5328 15.8756 37.8829 15.6816 38.3293C15.4861 38.7771 15.3898 39.3009 15.3898 39.899V39.9923C15.3898 40.9887 15.6305 41.7473 16.1134 42.268C16.5948 42.7859 17.2804 43.0441 18.1674 43.0441C18.5321 43.0441 18.8968 42.996 19.2586 42.8982C19.6233 42.802 19.9792 42.64 20.3264 42.4139C20.4781 42.3176 20.6152 42.271 20.7407 42.2739C20.8647 42.2783 20.9639 42.3176 21.0383 42.3906C21.1156 42.4606 21.1667 42.5467 21.19 42.6473C21.2163 42.7494 21.2046 42.8603 21.155 42.9799C21.1083 43.101 21.0149 43.2046 20.8749 43.2892C20.516 43.5503 20.0944 43.7502 19.6087 43.8902C19.1214 44.0303 18.6415 44.1003 18.1674 44.1003ZM18.4591 34.9274C18.3804 35.0368 18.287 35.0995 18.179 35.1141C18.074 35.1302 17.9719 35.1141 17.8756 35.0674C17.7779 35.0178 17.7064 34.9434 17.6597 34.8457C17.6159 34.7494 17.6276 34.6356 17.6947 34.5073L19.0602 31.8581C19.1331 31.7064 19.2294 31.6101 19.3461 31.5663C19.4657 31.524 19.5882 31.5167 19.7137 31.543C19.8377 31.5707 19.9427 31.6291 20.0288 31.718C20.1178 31.8041 20.1703 31.9077 20.1863 32.0273C20.2009 32.144 20.1659 32.2665 20.0813 32.3949L18.4591 34.9274Z" fill="#EDF8F8"/>
<path d="M25.0316 44.1002C24.327 44.1002 23.7128 43.9339 23.1877 43.5984C22.6625 43.2643 22.2555 42.7917 21.9681 42.1804C21.6836 41.5663 21.5421 40.8427 21.5421 40.0098C21.5421 39.1666 21.6836 38.4386 21.9681 37.8274C22.2555 37.2176 22.6625 36.7464 23.1877 36.4153C23.7128 36.0856 24.327 35.9193 25.0316 35.9193C25.7464 35.9193 26.3576 36.0987 26.8638 36.4561C27.3729 36.815 27.7158 37.2949 27.8908 37.8974H27.7099V33.0601C27.7099 32.8471 27.7654 32.6837 27.8791 32.5699C27.9958 32.4532 28.1607 32.3949 28.3751 32.3949C28.5808 32.3949 28.7398 32.4532 28.8536 32.5699C28.9659 32.6837 29.0228 32.8471 29.0228 33.0601V43.3883C29.0228 43.6028 28.9674 43.7705 28.8594 43.8901C28.7544 44.0069 28.5925 44.0652 28.3751 44.0652C28.168 44.0652 28.009 44.0069 27.8966 43.8901C27.7829 43.7705 27.7274 43.6028 27.7274 43.3883V41.842L27.9083 42.0696C27.7333 42.6881 27.389 43.1826 26.8755 43.5517C26.362 43.9179 25.7464 44.1002 25.0316 44.1002ZM25.3058 43.044C25.796 43.044 26.2234 42.9259 26.5896 42.6881C26.9586 42.4518 27.2431 42.1046 27.4415 41.6494C27.6428 41.1943 27.7449 40.6487 27.7449 40.0098C27.7449 39.0265 27.5247 38.2753 27.0856 37.7574C26.645 37.2366 26.0527 36.9755 25.3058 36.9755C24.8069 36.9755 24.378 37.0922 24.0163 37.3256C23.6545 37.5561 23.3715 37.896 23.1702 38.3467C22.9718 38.7946 22.8726 39.3489 22.8726 40.0098C22.8726 40.9828 23.0943 41.7311 23.5378 42.2563C23.9812 42.7815 24.5706 43.044 25.3058 43.044Z" fill="#EDF8F8"/>
<path d="M30.9264 44.036C30.7076 44.036 30.5442 43.9733 30.4363 43.8493C30.3269 43.7253 30.2729 43.5502 30.2729 43.3241V36.6837C30.2729 36.4547 30.3269 36.2811 30.4363 36.1644C30.5442 36.0447 30.7076 35.9835 30.9264 35.9835C31.1321 35.9835 31.2941 36.0447 31.4108 36.1644C31.5304 36.2811 31.5916 36.4547 31.5916 36.6837V43.3241C31.5916 43.5502 31.5333 43.7253 31.4166 43.8493C31.3028 43.9733 31.1394 44.036 30.9264 44.036ZM30.9264 34.1629C30.6536 34.1629 30.4421 34.0914 30.2904 33.947C30.1387 33.7997 30.0628 33.6013 30.0628 33.3518C30.0628 33.0951 30.1387 32.8996 30.2904 32.7625C30.4421 32.6268 30.6536 32.5582 30.9264 32.5582C31.2065 32.5582 31.418 32.6268 31.5625 32.7625C31.7098 32.8996 31.7842 33.0951 31.7842 33.3518C31.7842 33.6013 31.7098 33.7997 31.5625 33.947C31.418 34.0914 31.2065 34.1629 30.9264 34.1629Z" fill="#EDF8F8"/>
<path d="M36.1708 44.1003C35.3772 44.1003 34.6945 43.9281 34.1227 43.5809C33.5508 43.2352 33.1088 42.7509 32.7981 42.128C32.4903 41.5065 32.3371 40.7844 32.3371 39.9631C32.3371 39.3329 32.4217 38.7698 32.5938 38.2709C32.7689 37.7735 33.0227 37.349 33.3582 36.9989C33.6923 36.6458 34.0949 36.3774 34.5661 36.1936C35.0402 36.0113 35.5756 35.9193 36.1708 35.9193C36.5588 35.9193 36.9644 35.9806 37.3845 36.1002C37.8076 36.2169 38.1927 36.4212 38.5399 36.7129C38.6478 36.7917 38.7179 36.8851 38.7499 36.993C38.7806 37.0981 38.7806 37.2031 38.7499 37.3081C38.7179 37.4102 38.6639 37.4948 38.5866 37.5649C38.5122 37.6349 38.4173 37.6757 38.3006 37.6874C38.1869 37.6991 38.0731 37.6626 37.9564 37.5765C37.6719 37.3592 37.3845 37.2075 37.0928 37.1214C36.801 37.0368 36.518 36.993 36.2467 36.993C35.8265 36.993 35.4589 37.0616 35.1438 37.1973C34.8316 37.33 34.5676 37.5211 34.3502 37.7691C34.1314 38.0186 33.9666 38.3278 33.8542 38.6969C33.7404 39.0631 33.685 39.489 33.685 39.9748C33.685 40.9172 33.9068 41.6612 34.3502 42.2097C34.7937 42.7553 35.4254 43.0266 36.2467 43.0266C36.518 43.0266 36.7966 42.9843 37.0811 42.8982C37.3685 42.8136 37.6602 42.6619 37.9564 42.4431C38.0731 42.3585 38.1854 42.3205 38.2948 42.3322C38.4028 42.3439 38.4947 42.3847 38.5691 42.4547C38.6464 42.5248 38.6989 42.6152 38.7266 42.7232C38.7529 42.8282 38.7499 42.9332 38.7149 43.0383C38.6828 43.1404 38.6128 43.2294 38.5049 43.3067C38.1577 43.5868 37.7784 43.7895 37.367 43.9135C36.9585 44.0375 36.5588 44.1003 36.1708 44.1003Z" fill="#EDF8F8"/>
<path d="M42.3994 44.1003C41.632 44.1003 40.9668 43.934 40.4037 43.5984C39.8436 43.2644 39.4074 42.7917 39.0967 42.1805C38.7889 41.5663 38.6357 40.8428 38.6357 40.0098C38.6357 39.384 38.7203 38.8194 38.8924 38.3176C39.0675 37.8129 39.3213 37.3811 39.6568 37.0222C39.9909 36.6648 40.3877 36.392 40.8472 36.2053C41.3097 36.0156 41.8275 35.9193 42.3994 35.9193C43.1696 35.9193 43.8348 36.0871 44.395 36.4212C44.9581 36.7567 45.3943 37.2308 45.7021 37.845C46.0128 38.4562 46.1689 39.1783 46.1689 40.0098C46.1689 40.6371 46.0814 41.1987 45.9063 41.6962C45.7342 42.1951 45.4803 42.6269 45.1419 42.9916C44.8064 43.3534 44.4096 43.6305 43.9515 43.8202C43.492 44.0069 42.9741 44.1003 42.3994 44.1003ZM42.3994 43.0441C42.8895 43.0441 43.317 42.9259 43.6831 42.6882C44.0522 42.4518 44.3366 42.1046 44.535 41.6495C44.7364 41.1943 44.8385 40.6488 44.8385 40.0098C44.8385 39.0266 44.6182 38.2753 44.1791 37.7574C43.7385 37.2366 43.1463 36.9755 42.3994 36.9755C41.9005 36.9755 41.4716 37.0922 41.1098 37.3256C40.748 37.5561 40.465 37.896 40.2637 38.3468C40.0653 38.7946 39.9661 39.349 39.9661 40.0098C39.9661 40.9828 40.1878 41.7312 40.6313 42.2564C41.0748 42.7815 41.6641 43.0441 42.3994 43.0441Z" fill="#EDF8F8"/>
<path d="M53.2483 44.1003C52.4547 44.1003 51.772 43.9281 51.2001 43.5809C50.6283 43.2352 50.1863 42.7509 49.8755 42.128C49.5677 41.5065 49.4146 40.7844 49.4146 39.9631C49.4146 39.3329 49.4992 38.7698 49.6713 38.2709C49.8464 37.7735 50.1002 37.349 50.4357 36.9989C50.7698 36.6458 51.1724 36.3774 51.6436 36.1936C52.1177 36.0113 52.6531 35.9193 53.2483 35.9193C53.6363 35.9193 54.0418 35.9806 54.462 36.1002C54.885 36.2169 55.2702 36.4212 55.6173 36.7129C55.7253 36.7917 55.7953 36.8851 55.8274 36.993C55.858 37.0981 55.858 37.2031 55.8274 37.3081C55.7953 37.4102 55.7413 37.4948 55.664 37.5649C55.5896 37.6349 55.4948 37.6757 55.3781 37.6874C55.2643 37.6991 55.1505 37.6626 55.0338 37.5765C54.7494 37.3592 54.462 37.2075 54.1702 37.1214C53.8785 37.0368 53.5955 36.993 53.3241 36.993C52.904 36.993 52.5364 37.0616 52.2213 37.1973C51.9091 37.33 51.645 37.5211 51.4277 37.7691C51.2089 38.0186 51.044 38.3278 50.9317 38.6969C50.8179 39.0631 50.7625 39.489 50.7625 39.9748C50.7625 40.9172 50.9842 41.6612 51.4277 42.2097C51.8712 42.7553 52.5028 43.0266 53.3241 43.0266C53.5955 43.0266 53.8741 42.9843 54.1585 42.8982C54.4459 42.8136 54.7377 42.6619 55.0338 42.4431C55.1505 42.3585 55.2629 42.3205 55.3723 42.3322C55.4802 42.3439 55.5721 42.3847 55.6465 42.4547C55.7238 42.5248 55.7764 42.6152 55.8041 42.7232C55.8303 42.8282 55.8274 42.9332 55.7924 43.0383C55.7603 43.1404 55.6903 43.2294 55.5823 43.3067C55.2351 43.5868 54.8559 43.7895 54.4445 43.9135C54.036 44.0375 53.6363 44.1003 53.2483 44.1003Z" fill="#EDF8F8"/>
<path d="M59.4766 44.1003C58.7093 44.1003 58.0441 43.934 57.481 43.5984C56.9208 43.2644 56.4846 42.7917 56.1739 42.1805C55.8661 41.5663 55.7129 40.8428 55.7129 40.0098C55.7129 39.384 55.7975 38.8194 55.9697 38.3176C56.1447 37.8129 56.3986 37.3811 56.7341 37.0222C57.0682 36.6648 57.4649 36.392 57.9245 36.2053C58.3869 36.0156 58.9048 35.9193 59.4766 35.9193C60.2469 35.9193 60.9121 36.0871 61.4723 36.4212C62.0354 36.7567 62.4715 37.2308 62.7793 37.845C63.0901 38.4562 63.2462 39.1783 63.2462 40.0098C63.2462 40.6371 63.1586 41.1987 62.9836 41.6962C62.8114 42.1951 62.5576 42.6269 62.2192 42.9916C61.8836 43.3534 61.4868 43.6305 61.0288 43.8202C60.5693 44.0069 60.0514 44.1003 59.4766 44.1003ZM59.4766 43.0441C59.9668 43.0441 60.3942 42.9259 60.7604 42.6882C61.1294 42.4518 61.4139 42.1046 61.6123 41.6495C61.8136 41.1943 61.9157 40.6488 61.9157 40.0098C61.9157 39.0266 61.6955 38.2753 61.2564 37.7574C60.8158 37.2366 60.2235 36.9755 59.4766 36.9755C58.9777 36.9755 58.5488 37.0922 58.1871 37.3256C57.8253 37.5561 57.5423 37.896 57.341 38.3468C57.1426 38.7946 57.0434 39.349 57.0434 40.0098C57.0434 40.9828 57.2651 41.7312 57.7086 42.2564C58.152 42.7815 58.7414 43.0441 59.4766 43.0441Z" fill="#EDF8F8"/>
<path d="M66.4095 44.1002C65.6305 44.1002 65.0354 43.8639 64.624 43.3883C64.2111 42.9098 64.0054 42.2271 64.0054 41.3402V33.0601C64.0054 32.8471 64.0594 32.6837 64.1688 32.5699C64.2768 32.4532 64.4402 32.3949 64.659 32.3949C64.8647 32.3949 65.0266 32.4532 65.1433 32.5699C65.2629 32.6837 65.3242 32.8471 65.3242 33.0601V41.241C65.3242 41.8289 65.438 42.2665 65.6685 42.5539C65.9019 42.8384 66.2462 42.9799 66.7013 42.9799C66.7976 42.9799 66.8836 42.9769 66.958 42.9682C67.0354 42.9565 67.1127 42.9507 67.1915 42.9507C67.3082 42.939 67.3898 42.9667 67.4365 43.0324C67.4861 43.0951 67.5124 43.2235 67.5124 43.4175C67.5124 43.613 67.4686 43.7589 67.384 43.8551C67.2979 43.9529 67.1579 44.0185 66.9639 44.0535C66.8734 44.0608 66.7801 44.071 66.6838 44.0827C66.5861 44.0944 66.4942 44.1002 66.4095 44.1002Z" fill="#EDF8F8"/>
<path d="M70.8723 44.1003C70.105 44.1003 69.4398 43.934 68.8767 43.5984C68.3165 43.2644 67.8803 42.7917 67.5696 42.1805C67.2618 41.5663 67.1086 40.8428 67.1086 40.0098C67.1086 39.384 67.1932 38.8194 67.3654 38.3176C67.5404 37.8129 67.7943 37.3811 68.1298 37.0222C68.4638 36.6648 68.8606 36.392 69.3202 36.2053C69.7826 36.0156 70.3005 35.9193 70.8723 35.9193C71.6426 35.9193 72.3078 36.0871 72.8679 36.4212C73.431 36.7567 73.8672 37.2308 74.175 37.845C74.4857 38.4562 74.6418 39.1783 74.6418 40.0098C74.6418 40.6371 74.5543 41.1987 74.3793 41.6962C74.2071 42.1951 73.9533 42.6269 73.6148 42.9916C73.2793 43.3534 72.8825 43.6305 72.4245 43.8202C71.965 44.0069 71.4471 44.1003 70.8723 44.1003ZM70.8723 43.0441C71.3625 43.0441 71.7899 42.9259 72.1561 42.6882C72.5251 42.4518 72.8096 42.1046 73.008 41.6495C73.2093 41.1943 73.3114 40.6488 73.3114 40.0098C73.3114 39.0266 73.0911 38.2753 72.652 37.7574C72.2115 37.2366 71.6192 36.9755 70.8723 36.9755C70.3734 36.9755 69.9445 37.0922 69.5827 37.3256C69.221 37.5561 68.938 37.896 68.7366 38.3468C68.5382 38.7946 68.439 39.349 68.439 40.0098C68.439 40.9828 68.6608 41.7312 69.1043 42.2564C69.5477 42.7815 70.1371 43.0441 70.8723 43.0441Z" fill="#EDF8F8"/>
<path d="M76.0547 46.9887C75.8359 46.9887 75.6725 46.9318 75.5646 46.8195C75.4551 46.7057 75.4012 46.5408 75.4012 46.3235V36.6196C75.4012 36.4022 75.4551 36.2374 75.5646 36.1236C75.6725 36.0069 75.8301 35.9485 76.0372 35.9485C76.2546 35.9485 76.4194 36.0069 76.5332 36.1236C76.6455 36.2374 76.7024 36.4022 76.7024 36.6196V38.1601L76.5215 37.9325C76.6966 37.314 77.0409 36.8238 77.5543 36.462C78.0678 36.1002 78.682 35.9193 79.3983 35.9193C80.1014 35.9193 80.7141 36.0857 81.2363 36.4153C81.7615 36.7465 82.1671 37.2177 82.4559 37.8275C82.7433 38.4387 82.8877 39.1666 82.8877 40.0098C82.8877 40.8428 82.7433 41.5663 82.4559 42.1805C82.1671 42.7917 81.763 43.2644 81.2422 43.5984C80.7243 43.934 80.1102 44.1003 79.3983 44.1003C78.682 44.1003 78.0693 43.9194 77.5602 43.5576C77.054 43.1958 76.7082 42.7115 76.5215 42.1046H76.7199V46.3235C76.7199 46.5408 76.6586 46.7057 76.539 46.8195C76.4223 46.9318 76.2604 46.9887 76.0547 46.9887ZM79.124 43.0441C79.6171 43.0441 80.046 42.9259 80.4078 42.6882C80.7724 42.4518 81.0555 42.1046 81.2539 41.6495C81.4552 41.1943 81.5573 40.6488 81.5573 40.0098C81.5573 39.0266 81.337 38.2753 80.8979 37.7574C80.4573 37.2366 79.8665 36.9755 79.124 36.9755C78.6339 36.9755 78.2035 37.0922 77.8344 37.3256C77.4683 37.5561 77.1838 37.896 76.9825 38.3468C76.7841 38.7946 76.6849 39.349 76.6849 40.0098C76.6849 40.9828 76.9066 41.7312 77.3501 42.2564C77.7936 42.7815 78.3844 43.0441 79.124 43.0441Z" fill="#EDF8F8"/>
<path d="M84.3129 44.0653C84.0984 44.0653 83.9336 44.0069 83.8169 43.8902C83.7031 43.7706 83.6477 43.6028 83.6477 43.3884V36.6196C83.6477 36.4022 83.7016 36.2374 83.811 36.1236C83.919 36.0069 84.0765 35.9485 84.2837 35.9485C84.4894 35.9485 84.6484 36.0069 84.7622 36.1236C84.8745 36.2374 84.9314 36.4022 84.9314 36.6196V37.9325H84.768C84.9431 37.295 85.2728 36.8034 85.76 36.4562C86.2458 36.1105 86.8468 35.9252 87.5631 35.9019C87.7264 35.8902 87.8563 35.9252 87.954 36.0069C88.0503 36.0886 88.1028 36.2272 88.1116 36.4212C88.1232 36.605 88.0795 36.7509 87.9832 36.8588C87.8855 36.9682 87.7337 37.0339 87.5281 37.0572L87.2713 37.0864C86.5361 37.1535 85.9701 37.3898 85.5733 37.7983C85.1794 38.2038 84.9839 38.7553 84.9839 39.4555V43.3884C84.9839 43.6028 84.9256 43.7706 84.8089 43.8902C84.6951 44.0069 84.5302 44.0653 84.3129 44.0653Z" fill="#EDF8F8"/>
<path d="M91.5211 44.1003C90.7537 44.1003 90.0885 43.934 89.5254 43.5984C88.9653 43.2644 88.5291 42.7917 88.2183 42.1805C87.9105 41.5663 87.7574 40.8428 87.7574 40.0098C87.7574 39.384 87.842 38.8194 88.0141 38.3176C88.1892 37.8129 88.443 37.3811 88.7785 37.0222C89.1126 36.6648 89.5094 36.392 89.9689 36.2053C90.4313 36.0156 90.9492 35.9193 91.5211 35.9193C92.2913 35.9193 92.9565 36.0871 93.5167 36.4212C94.0798 36.7567 94.516 37.2308 94.8238 37.845C95.1345 38.4562 95.2906 39.1783 95.2906 40.0098C95.2906 40.6371 95.2031 41.1987 95.028 41.6962C94.8559 42.1951 94.602 42.6269 94.2636 42.9916C93.9281 43.3534 93.5313 43.6305 93.0732 43.8202C92.6137 44.0069 92.0958 44.1003 91.5211 44.1003ZM91.5211 43.0441C92.0112 43.0441 92.4386 42.9259 92.8048 42.6882C93.1739 42.4518 93.4583 42.1046 93.6567 41.6495C93.858 41.1943 93.9602 40.6488 93.9602 40.0098C93.9602 39.0266 93.7399 38.2753 93.3008 37.7574C92.8602 37.2366 92.268 36.9755 91.5211 36.9755C91.0222 36.9755 90.5933 37.0922 90.2315 37.3256C89.8697 37.5561 89.5867 37.896 89.3854 38.3468C89.187 38.7946 89.0878 39.349 89.0878 40.0098C89.0878 40.9828 89.3095 41.7312 89.753 42.2564C90.1965 42.7815 90.7858 43.0441 91.5211 43.0441Z" fill="#EDF8F8"/>
<path d="M99.3992 44.1003C98.6056 44.1003 97.9229 43.9281 97.3511 43.5809C96.7792 43.2352 96.3372 42.7509 96.0265 42.128C95.7187 41.5065 95.5655 40.7844 95.5655 39.9631C95.5655 39.3329 95.6501 38.7698 95.8222 38.2709C95.9973 37.7735 96.2511 37.349 96.5866 36.9989C96.9207 36.6458 97.3233 36.3774 97.7945 36.1936C98.2686 36.0113 98.804 35.9193 99.3992 35.9193C99.7872 35.9193 100.193 35.9806 100.613 36.1002C101.036 36.2169 101.421 36.4212 101.768 36.7129C101.876 36.7917 101.946 36.8851 101.978 36.993C102.009 37.0981 102.009 37.2031 101.978 37.3081C101.946 37.4102 101.892 37.4948 101.815 37.5649C101.741 37.6349 101.646 37.6757 101.529 37.6874C101.415 37.6991 101.301 37.6626 101.185 37.5765C100.9 37.3592 100.613 37.2075 100.321 37.1214C100.029 37.0368 99.7464 36.993 99.4751 36.993C99.0549 36.993 98.6873 37.0616 98.3722 37.1973C98.06 37.33 97.796 37.5211 97.5786 37.7691C97.3598 38.0186 97.195 38.3278 97.0826 38.6969C96.9689 39.0631 96.9134 39.489 96.9134 39.9748C96.9134 40.9172 97.1352 41.6612 97.5786 42.2097C98.0221 42.7553 98.6538 43.0266 99.4751 43.0266C99.7464 43.0266 100.025 42.9843 100.309 42.8982C100.597 42.8136 100.889 42.6619 101.185 42.4431C101.301 42.3585 101.414 42.3205 101.523 42.3322C101.631 42.3439 101.723 42.3847 101.797 42.4547C101.875 42.5248 101.927 42.6152 101.955 42.7232C101.981 42.8282 101.978 42.9332 101.943 43.0383C101.911 43.1404 101.841 43.2294 101.733 43.3067C101.386 43.5868 101.007 43.7895 100.595 43.9135C100.187 44.0375 99.7872 44.1003 99.3992 44.1003Z" fill="#EDF8F8"/>
<path d="M105.517 44.1003C104.898 44.1003 104.38 43.9894 103.965 43.7677C103.547 43.5459 103.237 43.2221 103.031 42.7932C102.824 42.3658 102.722 41.845 102.722 41.2294V37.0864H101.636C101.452 37.0864 101.312 37.0426 101.216 36.9522C101.118 36.8588 101.07 36.7304 101.07 36.567C101.07 36.4037 101.118 36.2797 101.216 36.1936C101.312 36.109 101.452 36.0652 101.636 36.0652H102.722V34.198C102.722 33.9806 102.781 33.8158 102.903 33.702C103.022 33.5896 103.184 33.5328 103.387 33.5328C103.593 33.5328 103.752 33.5896 103.865 33.702C103.982 33.8158 104.04 33.9806 104.04 34.198V36.0652H106.083C106.269 36.0652 106.411 36.109 106.509 36.1936C106.605 36.2797 106.655 36.4037 106.655 36.567C106.655 36.7304 106.605 36.8588 106.509 36.9522C106.411 37.0426 106.269 37.0864 106.083 37.0864H104.04V41.0951C104.04 41.7137 104.169 42.1834 104.425 42.5014C104.685 42.8209 105.11 42.9799 105.698 42.9799C105.899 42.9799 106.072 42.9595 106.217 42.9157C106.364 42.8734 106.488 42.8515 106.59 42.8515C106.687 42.8399 106.767 42.8734 106.83 42.9507C106.895 43.0251 106.929 43.1535 106.929 43.3358C106.929 43.4686 106.903 43.5897 106.853 43.6976C106.806 43.8027 106.722 43.8771 106.602 43.9194C106.474 43.966 106.302 44.0069 106.089 44.0419C105.878 44.0798 105.687 44.1003 105.517 44.1003Z" fill="#EDF8F8"/>
<path d="M110.092 44.1003C109.324 44.1003 108.659 43.934 108.096 43.5984C107.536 43.2644 107.1 42.7917 106.789 42.1805C106.481 41.5663 106.328 40.8428 106.328 40.0098C106.328 39.384 106.413 38.8194 106.585 38.3176C106.76 37.8129 107.014 37.3811 107.349 37.0222C107.683 36.6648 108.08 36.392 108.539 36.2053C109.002 36.0156 109.52 35.9193 110.092 35.9193C110.862 35.9193 111.527 36.0871 112.087 36.4212C112.65 36.7567 113.087 37.2308 113.394 37.845C113.705 38.4562 113.861 39.1783 113.861 40.0098C113.861 40.6371 113.774 41.1987 113.599 41.6962C113.426 42.1951 113.173 42.6269 112.834 42.9916C112.499 43.3534 112.102 43.6305 111.644 43.8202C111.184 44.0069 110.666 44.1003 110.092 44.1003ZM110.092 43.0441C110.582 43.0441 111.009 42.9259 111.375 42.6882C111.744 42.4518 112.029 42.1046 112.227 41.6495C112.429 41.1943 112.531 40.6488 112.531 40.0098C112.531 39.0266 112.31 38.2753 111.871 37.7574C111.431 37.2366 110.839 36.9755 110.092 36.9755C109.593 36.9755 109.164 37.0922 108.802 37.3256C108.44 37.5561 108.157 37.896 107.956 38.3468C107.758 38.7946 107.658 39.349 107.658 40.0098C107.658 40.9828 107.88 41.7312 108.324 42.2564C108.767 42.7815 109.356 43.0441 110.092 43.0441Z" fill="#EDF8F8"/>
<path d="M117.025 44.1002C116.246 44.1002 115.65 43.8639 115.239 43.3883C114.826 42.9098 114.621 42.2271 114.621 41.3402V33.0601C114.621 32.8471 114.674 32.6837 114.784 32.5699C114.892 32.4532 115.055 32.3949 115.274 32.3949C115.48 32.3949 115.642 32.4532 115.758 32.5699C115.878 32.6837 115.939 32.8471 115.939 33.0601V41.241C115.939 41.8289 116.053 42.2665 116.284 42.5539C116.517 42.8384 116.861 42.9799 117.316 42.9799C117.413 42.9799 117.499 42.9769 117.573 42.9682C117.65 42.9565 117.728 42.9507 117.807 42.9507C117.923 42.939 118.005 42.9667 118.052 43.0324C118.101 43.0951 118.127 43.2235 118.127 43.4175C118.127 43.613 118.084 43.7589 117.999 43.8551C117.913 43.9529 117.773 44.0185 117.579 44.0535C117.489 44.0608 117.395 44.071 117.299 44.0827C117.201 44.0944 117.109 44.1002 117.025 44.1002Z" fill="#EDF8F8"/>
<path d="M121.487 44.1003C120.72 44.1003 120.055 43.934 119.492 43.5984C118.932 43.2644 118.495 42.7917 118.185 42.1805C117.877 41.5663 117.724 40.8428 117.724 40.0098C117.724 39.384 117.808 38.8194 117.98 38.3176C118.155 37.8129 118.409 37.3811 118.745 37.0222C119.079 36.6648 119.476 36.392 119.935 36.2053C120.398 36.0156 120.915 35.9193 121.487 35.9193C122.258 35.9193 122.923 36.0871 123.483 36.4212C124.046 36.7567 124.482 37.2308 124.79 37.845C125.101 38.4562 125.257 39.1783 125.257 40.0098C125.257 40.6371 125.169 41.1987 124.994 41.6962C124.822 42.1951 124.568 42.6269 124.23 42.9916C123.894 43.3534 123.498 43.6305 123.039 43.8202C122.58 44.0069 122.062 44.1003 121.487 44.1003ZM121.487 43.0441C121.977 43.0441 122.405 42.9259 122.771 42.6882C123.14 42.4518 123.425 42.1046 123.623 41.6495C123.824 41.1943 123.926 40.6488 123.926 40.0098C123.926 39.0266 123.706 38.2753 123.267 37.7574C122.827 37.2366 122.234 36.9755 121.487 36.9755C120.988 36.9755 120.56 37.0922 120.198 37.3256C119.836 37.5561 119.553 37.896 119.352 38.3468C119.153 38.7946 119.054 39.349 119.054 40.0098C119.054 40.9828 119.276 41.7312 119.719 42.2564C120.163 42.7815 120.752 43.0441 121.487 43.0441Z" fill="#EDF8F8"/>
<path d="M129.512 47.0237C128.935 47.0237 128.374 46.9551 127.825 46.8195C127.28 46.6823 126.787 46.4693 126.343 46.1776C126.215 46.1032 126.13 46.0113 126.092 45.9033C126.053 45.7939 126.043 45.6874 126.063 45.5824C126.086 45.4803 126.134 45.3898 126.209 45.3081C126.286 45.2265 126.375 45.1739 126.477 45.1506C126.582 45.1302 126.689 45.1477 126.798 45.2031C127.272 45.4949 127.726 45.6947 128.158 45.8041C128.593 45.9121 129.021 45.9675 129.442 45.9675C130.212 45.9675 130.792 45.7604 131.186 45.349C131.583 44.9405 131.781 44.3453 131.781 43.5634V41.7312H131.945C131.781 42.3585 131.437 42.8559 130.912 43.225C130.387 43.5911 129.771 43.7735 129.068 43.7735C128.345 43.7735 127.716 43.6101 127.183 43.2833C126.654 42.9537 126.245 42.4898 125.958 41.8946C125.673 41.2994 125.532 40.6108 125.532 39.8289C125.532 39.2454 125.611 38.7144 125.771 38.2359C125.935 37.7545 126.169 37.3417 126.477 36.9989C126.788 36.6575 127.161 36.392 127.598 36.2053C128.037 36.0156 128.527 35.9193 129.068 35.9193C129.783 35.9193 130.4 36.1002 130.918 36.462C131.439 36.8238 131.776 37.314 131.927 37.9325L131.764 38.125V36.6196C131.764 36.4022 131.819 36.2374 131.933 36.1236C132.05 36.0069 132.21 35.9485 132.417 35.9485C132.63 35.9485 132.792 36.0069 132.902 36.1236C133.01 36.2374 133.065 36.4022 133.065 36.6196V43.3884C133.065 44.586 132.763 45.4905 132.161 46.1017C131.561 46.7159 130.679 47.0237 129.512 47.0237ZM129.313 42.7057C129.822 42.7057 130.26 42.589 130.626 42.3555C130.995 42.1221 131.28 41.7895 131.478 41.3577C131.679 40.9259 131.781 40.4168 131.781 39.8289C131.781 38.9536 131.56 38.2593 131.116 37.7458C130.673 37.2323 130.072 36.9755 129.313 36.9755C128.814 36.9755 128.381 37.0922 128.012 37.3256C127.646 37.5561 127.361 37.8843 127.16 38.3118C126.962 38.7407 126.862 39.2454 126.862 39.8289C126.862 40.7086 127.084 41.4088 127.528 41.9296C127.971 42.4475 128.566 42.7057 129.313 42.7057Z" fill="#EDF8F8"/>
<path d="M134.965 44.036C134.746 44.036 134.583 43.9733 134.475 43.8493C134.365 43.7253 134.311 43.5502 134.311 43.3241V36.6837C134.311 36.4547 134.365 36.2811 134.475 36.1644C134.583 36.0447 134.746 35.9835 134.965 35.9835C135.171 35.9835 135.333 36.0447 135.449 36.1644C135.569 36.2811 135.63 36.4547 135.63 36.6837V43.3241C135.63 43.5502 135.572 43.7253 135.455 43.8493C135.341 43.9733 135.178 44.036 134.965 44.036ZM134.965 34.1629C134.692 34.1629 134.481 34.0914 134.329 33.947C134.177 33.7997 134.101 33.6013 134.101 33.3518C134.101 33.0951 134.177 32.8996 134.329 32.7625C134.481 32.6268 134.692 32.5582 134.965 32.5582C135.245 32.5582 135.457 32.6268 135.601 32.7625C135.748 32.8996 135.823 33.0951 135.823 33.3518C135.823 33.6013 135.748 33.7997 135.601 33.947C135.457 34.0914 135.245 34.1629 134.965 34.1629Z" fill="#EDF8F8"/>
<path d="M139.526 44.1003C139.036 44.1003 138.543 44.0419 138.05 43.9252C137.56 43.8056 137.105 43.5984 136.685 43.3067C136.575 43.2294 136.5 43.1404 136.457 43.0383C136.413 42.9332 136.4 42.8311 136.416 42.729C136.431 42.6283 136.475 42.5408 136.545 42.4664C136.615 42.3891 136.699 42.3424 136.801 42.3264C136.907 42.3074 137.025 42.3308 137.157 42.3964C137.578 42.6575 137.983 42.8399 138.377 42.9449C138.774 43.047 139.166 43.0966 139.556 43.0966C140.174 43.0966 140.638 42.9843 140.95 42.7582C141.265 42.5291 141.423 42.2199 141.423 41.8304C141.423 41.527 141.319 41.2863 141.114 41.1068C140.907 40.9288 140.583 40.7903 140.139 40.6925L138.663 40.3658C137.982 40.2257 137.475 39.9836 137.146 39.6364C136.815 39.2906 136.65 38.8413 136.65 38.2884C136.65 37.8027 136.775 37.384 137.029 37.0339C137.286 36.6808 137.645 36.4066 138.109 36.2111C138.575 36.0171 139.118 35.9193 139.737 35.9193C140.211 35.9193 140.661 35.9821 141.09 36.1061C141.518 36.2315 141.904 36.427 142.252 36.6954C142.359 36.7742 142.432 36.8646 142.467 36.9697C142.505 37.0718 142.511 37.1739 142.485 37.2789C142.457 37.3811 142.405 37.4657 142.327 37.5357C142.253 37.6057 142.161 37.6466 142.053 37.6582C141.948 37.667 141.834 37.6334 141.715 37.559C141.391 37.3417 141.061 37.1827 140.723 37.0805C140.387 36.9755 140.059 36.923 139.737 36.923C139.13 36.923 138.669 37.0441 138.354 37.2848C138.041 37.5226 137.887 37.8362 137.887 38.2242C137.887 38.5277 137.983 38.7771 138.179 38.9711C138.373 39.1666 138.676 39.3067 139.089 39.3913L140.565 39.7005C141.268 39.8523 141.796 40.0944 142.146 40.4241C142.497 40.7553 142.672 41.2002 142.672 41.7604C142.672 42.4766 142.383 43.047 141.808 43.4701C141.236 43.8902 140.475 44.1003 139.526 44.1003Z" fill="#EDF8F8"/>
<path d="M146.619 44.1003C146.001 44.1003 145.483 43.9894 145.067 43.7677C144.65 43.5459 144.339 43.2221 144.133 42.7932C143.926 42.3658 143.824 41.845 143.824 41.2294V37.0864H142.739C142.555 37.0864 142.415 37.0426 142.319 36.9522C142.221 36.8588 142.173 36.7304 142.173 36.567C142.173 36.4037 142.221 36.2797 142.319 36.1936C142.415 36.109 142.555 36.0652 142.739 36.0652H143.824V34.198C143.824 33.9806 143.884 33.8158 144.005 33.702C144.125 33.5896 144.286 33.5328 144.489 33.5328C144.695 33.5328 144.854 33.5896 144.968 33.702C145.084 33.8158 145.143 33.9806 145.143 34.198V36.0652H147.185C147.372 36.0652 147.513 36.109 147.611 36.1936C147.707 36.2797 147.757 36.4037 147.757 36.567C147.757 36.7304 147.707 36.8588 147.611 36.9522C147.513 37.0426 147.372 37.0864 147.185 37.0864H145.143V41.0951C145.143 41.7137 145.271 42.1834 145.528 42.5014C145.788 42.8209 146.212 42.9799 146.8 42.9799C147.001 42.9799 147.175 42.9595 147.319 42.9157C147.467 42.8734 147.591 42.8515 147.693 42.8515C147.789 42.8399 147.869 42.8734 147.932 42.9507C147.998 43.0251 148.031 43.1535 148.031 43.3358C148.031 43.4686 148.005 43.5897 147.955 43.6976C147.909 43.8027 147.824 43.8771 147.704 43.9194C147.576 43.966 147.404 44.0069 147.191 44.0419C146.981 44.0798 146.79 44.1003 146.619 44.1003Z" fill="#EDF8F8"/>
<mask id="mask5_72_671" style="mask-type:luminance" maskUnits="userSpaceOnUse" x="147" y="35" width="8" height="10">
<path d="M147.541 35.8514H154.238V44.4407H147.541V35.8514Z" fill="white"/>
</mask>
<g mask="url(#mask5_72_671)">
<path d="M150.4 44.1003C149.859 44.1003 149.375 43.9953 148.947 43.7852C148.519 43.5751 148.18 43.2863 147.932 42.9158C147.683 42.5467 147.559 42.1368 147.559 41.6845C147.559 41.0981 147.706 40.6371 148.002 40.3016C148.301 39.9675 148.796 39.7298 149.484 39.5897C150.173 39.4467 151.112 39.3738 152.303 39.3738H153.032V40.2374H152.314C151.439 40.2374 150.748 40.2783 150.243 40.3599C149.741 40.4416 149.388 40.5802 149.187 40.7742C148.988 40.9697 148.889 41.2454 148.889 41.6028C148.889 42.0463 149.042 42.4081 149.35 42.6882C149.661 42.9683 150.081 43.1083 150.61 43.1083C151.045 43.1083 151.427 43.0077 151.754 42.8049C152.084 42.5992 152.345 42.3177 152.536 41.9588C152.726 41.6014 152.822 41.1885 152.822 40.7217V38.872C152.822 38.2039 152.685 37.721 152.414 37.4249C152.141 37.1258 151.697 36.9755 151.083 36.9755C150.705 36.9755 150.326 37.0251 149.945 37.1214C149.567 37.2192 149.166 37.3753 148.743 37.5882C148.592 37.667 148.46 37.6918 148.352 37.6641C148.247 37.6378 148.161 37.5809 148.096 37.4949C148.028 37.4103 147.99 37.3111 147.979 37.1973C147.97 37.0806 147.996 36.9683 148.055 36.8588C148.113 36.7509 148.208 36.6648 148.341 36.6021C148.815 36.3658 149.283 36.1922 149.747 36.0828C150.214 35.9748 150.659 35.9194 151.083 35.9194C151.763 35.9194 152.326 36.0302 152.769 36.252C153.213 36.4737 153.543 36.8107 153.761 37.2615C153.979 37.7093 154.088 38.2855 154.088 38.9887V43.3884C154.088 43.6028 154.036 43.7706 153.931 43.8902C153.829 44.0069 153.681 44.0653 153.487 44.0653C153.28 44.0653 153.123 44.0069 153.015 43.8902C152.905 43.7706 152.851 43.6028 152.851 43.3884V42.1222H152.997C152.911 42.5306 152.746 42.8837 152.501 43.1783C152.259 43.4701 151.96 43.6977 151.602 43.8611C151.244 44.0201 150.844 44.1003 150.4 44.1003Z" fill="#EDF8F8"/>
</g>
</g>
</g>
</g>
</svg>
