<svg width="150" height="152" viewBox="0 0 150 152" fill="none" xmlns="http://www.w3.org/2000/svg">
<mask id="mask0_69_491" style="mask-type:luminance" maskUnits="userSpaceOnUse" x="0" y="0" width="150" height="152">
<path d="M149.731 0H0V152H149.731V0Z" fill="white"/>
</mask>
<g mask="url(#mask0_69_491)">
<mask id="mask1_69_491" style="mask-type:luminance" maskUnits="userSpaceOnUse" x="0" y="0" width="150" height="141">
<path d="M0.036972 0.00439453H149.421V140.657H0.036972V0.00439453Z" fill="white"/>
</mask>
<g mask="url(#mask1_69_491)">
<mask id="mask2_69_491" style="mask-type:luminance" maskUnits="userSpaceOnUse" x="0" y="0" width="150" height="141">
<path d="M149.731 0H-3.05176e-05V140.657H149.731V0Z" fill="white"/>
</mask>
<g mask="url(#mask2_69_491)">
<path d="M5.95684 45.2304C5.29811 45.2304 4.79888 45.0591 4.45622 44.7165C4.11356 44.3738 3.94223 43.8746 3.94223 43.2158V15.6906C3.94223 15.0334 4.11356 14.5327 4.45622 14.19C4.79888 13.8474 5.29811 13.676 5.95684 13.676H14.5943C19.6988 13.676 23.6364 15.0201 26.4102 17.7053C29.1869 20.3919 30.5753 24.3015 30.5753 29.4326C30.5753 31.9966 30.2238 34.2579 29.5237 36.2149C28.8221 38.169 27.7838 39.8173 26.4102 41.1599C25.0396 42.5039 23.3691 43.5171 21.4002 44.2025C19.4299 44.8878 17.1613 45.2304 14.5943 45.2304H5.95684ZM7.61107 42.0992H14.3284C16.4154 42.0992 18.2277 41.8319 19.7637 41.2957C21.2998 40.7566 22.5818 39.965 23.6098 38.9207C24.6408 37.878 25.4118 36.5576 25.9198 34.9624C26.4279 33.3643 26.682 31.521 26.682 29.4326C26.682 25.2231 25.651 22.0653 23.5921 19.9621C21.5317 17.8589 18.4433 16.8072 14.3284 16.8072H7.61107V42.0992Z" fill="#EDECE6"/>
<path d="M35.139 45.5437C34.5438 45.5437 34.0888 45.3797 33.7742 45.0533C33.4626 44.7225 33.3075 44.2602 33.3075 43.6649V25.0017C33.3075 24.4035 33.4552 23.9486 33.7506 23.637C34.049 23.3224 34.4832 23.1643 35.0504 23.1643C35.6175 23.1643 36.0562 23.3224 36.3678 23.637C36.6824 23.9486 36.8405 24.4035 36.8405 25.0017V28.6233H36.3974C36.873 26.8627 37.7828 25.5068 39.1269 24.5527C40.4694 23.5956 42.1251 23.0875 44.0954 23.0284C44.54 23.0019 44.896 23.0993 45.1648 23.3238C45.4366 23.5454 45.5857 23.925 45.6138 24.4641C45.6448 24.9722 45.5252 25.3769 45.2534 25.6752C44.9846 25.9706 44.5681 26.1478 44.0009 26.2069L43.2861 26.2955C41.2567 26.4772 39.697 27.1271 38.607 28.2452C37.5199 29.3647 36.9764 30.8919 36.9764 32.8297V43.6649C36.9764 44.2602 36.8183 44.7225 36.5037 45.0533C36.1921 45.3797 35.7372 45.5437 35.139 45.5437Z" fill="#EDECE6"/>
<path d="M46.7777 45.4077C46.0333 45.4077 45.4366 45.1772 44.9876 44.7164C44.5415 44.2527 44.32 43.6633 44.32 42.9499C44.32 42.2336 44.5415 41.6443 44.9876 41.1835C45.4366 40.7197 46.0333 40.4863 46.7777 40.4863C47.525 40.4863 48.1143 40.7197 48.5442 41.1835C48.9769 41.6443 49.194 42.2336 49.194 42.9499C49.194 43.6633 48.9769 44.2527 48.5442 44.7164C48.1143 45.1772 47.525 45.4077 46.7777 45.4077Z" fill="#EDECE6"/>
<path d="M18.6708 85.3701C15.1762 85.3701 12.2281 84.7144 9.82655 83.4028C7.42349 82.0883 5.59645 80.2228 4.34396 77.808C3.09148 75.3901 2.46523 72.5248 2.46523 69.2119C2.46523 66.7039 2.82857 64.4501 3.55821 62.4532C4.29079 60.4533 5.34979 58.7459 6.73669 57.331C8.12654 55.9131 9.82064 54.8245 11.8175 54.0639C13.8174 53.3003 16.086 52.9177 18.6235 52.9177C20.2925 52.9177 21.9704 53.1215 23.6571 53.5262C25.3423 53.928 26.9316 54.6059 28.4248 55.5586C28.9329 55.8865 29.2667 56.2897 29.4292 56.7697C29.5946 57.2468 29.6182 57.7312 29.5001 58.2231C29.3819 58.7164 29.1574 59.1418 28.8266 59.4992C28.4987 59.8581 28.0895 60.0826 27.5977 60.1727C27.1044 60.2598 26.5608 60.1402 25.9671 59.8123C24.8328 59.1551 23.6822 58.678 22.5168 58.3826C21.3545 58.0842 20.0562 57.9336 18.6235 57.9336C16.4139 57.9336 14.5485 58.3752 13.0287 59.257C11.5074 60.1358 10.3657 61.4104 9.60205 63.0794C8.8414 64.7499 8.46181 66.794 8.46181 69.2119C8.46181 72.8837 9.3421 75.6737 11.1027 77.5835C12.8632 79.4903 15.4746 80.4429 18.9366 80.4429C20.13 80.4429 21.3367 80.3248 22.5582 80.0884C23.7826 79.8492 24.9775 79.5198 26.1443 79.1018L25.0218 81.654V72.1186H20.1005C19.3561 72.1186 18.7801 71.9266 18.3754 71.5396C17.9736 71.1497 17.7728 70.6283 17.7728 69.974C17.7728 69.2857 17.9736 68.7629 18.3754 68.4084C18.7801 68.051 19.3561 67.8708 20.1005 67.8708H27.4854C28.2298 67.8708 28.8029 68.0716 29.2047 68.4734C29.6094 68.8751 29.8132 69.4482 29.8132 70.1926V81.0692C29.8132 81.7279 29.6847 82.2803 29.4292 82.7293C29.1766 83.1753 28.7675 83.5018 28.2003 83.71C26.8887 84.1915 25.3822 84.5888 23.6807 84.9034C21.9792 85.2136 20.3088 85.3701 18.6708 85.3701Z" fill="#EDECE6"/>
<path d="M40.4653 85.37C38.6456 85.37 37.1391 85.0347 35.9457 84.3656C34.7523 83.6921 33.8632 82.6848 33.2812 81.3407C32.7022 79.9982 32.4128 78.3262 32.4128 76.3249V65.4956C32.4128 64.5429 32.6505 63.8355 33.1276 63.3746C33.6032 62.9109 34.2885 62.6775 35.1836 62.6775C36.0816 62.6775 36.7758 62.9109 37.2691 63.3746C37.7609 63.8355 38.0076 64.5429 38.0076 65.4956V76.4194C38.0076 77.9717 38.3207 79.1193 38.947 79.8637C39.5732 80.6082 40.5716 80.9804 41.9423 80.9804C43.434 80.9804 44.657 80.4664 45.6111 79.4384C46.5682 78.4104 47.0468 77.0457 47.0468 75.3442V65.4956C47.0468 64.5429 47.2846 63.8355 47.7616 63.3746C48.2372 62.9109 48.9255 62.6775 49.8235 62.6775C50.7171 62.6775 51.4098 62.9109 51.9031 63.3746C52.3949 63.8355 52.6416 64.5429 52.6416 65.4956V82.416C52.6416 84.3272 51.7318 85.2813 49.9121 85.2813C49.0451 85.2813 48.3731 85.0347 47.8975 84.5429C47.4204 84.051 47.1826 83.3421 47.1826 82.416V79.013L47.8089 80.3541C47.1826 81.9655 46.2344 83.2047 44.9672 84.0702C43.6984 84.9357 42.1978 85.37 40.4653 85.37Z" fill="#EDECE6"/>
<path d="M63.1193 85.37C61.8344 85.37 60.4755 85.2341 59.0429 84.9623C57.6087 84.695 56.3267 84.2342 55.1968 83.5798C54.7153 83.2815 54.3785 82.93 54.1865 82.5282C53.993 82.1235 53.9177 81.7188 53.962 81.3171C54.0093 80.9154 54.1584 80.5653 54.411 80.2655C54.6621 79.9671 54.99 79.7736 55.3917 79.6865C55.7964 79.5964 56.2381 79.6688 56.7151 79.9051C57.9085 80.4723 59.0266 80.8681 60.0708 81.0926C61.118 81.3171 62.1475 81.4294 63.1607 81.4294C64.5934 81.4294 65.6612 81.1842 66.3628 80.6909C67.0629 80.199 67.4144 79.5506 67.4144 78.7471C67.4144 78.0589 67.1811 77.5286 66.7173 77.1579C66.2565 76.7842 65.5623 76.5065 64.6377 76.3249L60.1654 75.4741C58.3132 75.1197 56.9012 74.4432 55.9294 73.4418C54.9605 72.4419 54.476 71.1495 54.476 69.5662C54.476 68.1364 54.8718 66.9002 55.6635 65.856C56.4552 64.8088 57.5511 64.0038 58.9542 63.4396C60.3559 62.8724 61.9673 62.5889 63.7869 62.5889C65.1015 62.5889 66.3333 62.7307 67.4794 63.0142C68.6285 63.2978 69.7422 63.738 70.8174 64.3317C71.262 64.5725 71.5677 64.8871 71.7332 65.277C71.8986 65.664 71.9355 66.0568 71.8454 66.4586C71.7538 66.8603 71.5751 67.2192 71.3078 67.5338C71.039 67.8455 70.7022 68.039 70.2975 68.1128C69.8958 68.1881 69.4409 68.1069 68.9328 67.8706C68.0111 67.3906 67.1249 67.0464 66.2742 66.8367C65.4235 66.6284 64.6096 66.5236 63.8342 66.5236C62.372 66.5236 61.2894 66.7776 60.5848 67.2857C59.8833 67.7938 59.5332 68.4658 59.5332 69.3003C59.5332 69.9266 59.7415 70.4494 60.1595 70.8659C60.5804 71.2839 61.2229 71.5675 62.0855 71.7167L66.5637 72.5674C68.5015 72.9263 69.9696 73.5836 70.971 74.5407C71.9709 75.4948 72.4716 76.7768 72.4716 78.3868C72.4716 80.5653 71.6209 82.2742 69.9194 83.5149C68.2179 84.7526 65.9507 85.37 63.1193 85.37Z" fill="#EDECE6"/>
<path d="M83.3906 85.37C81.4528 85.37 79.834 85.0406 78.5343 84.3834C77.2375 83.7261 76.2774 82.7631 75.6512 81.4944C75.0249 80.2271 74.7118 78.6526 74.7118 76.7739V67.2385H72.3841C71.6663 67.2385 71.1139 67.0538 70.7239 66.6831C70.3384 66.3094 70.145 65.794 70.145 65.1352C70.145 64.4499 70.3384 63.9285 70.7239 63.5696C71.1139 63.2122 71.6663 63.032 72.3841 63.032H74.7118V58.9614C74.7118 58.0368 74.957 57.3352 75.4503 56.8582C75.9421 56.3826 76.6349 56.1433 77.5299 56.1433C78.4235 56.1433 79.1088 56.3826 79.5859 56.8582C80.0659 57.3352 80.3066 58.0368 80.3066 58.9614V63.032H85.0507C85.7671 63.032 86.318 63.2122 86.705 63.5696C87.0949 63.9285 87.2899 64.4499 87.2899 65.1352C87.2899 65.794 87.0949 66.3094 86.705 66.6831C86.318 67.0538 85.7671 67.2385 85.0507 67.2385H80.3066V76.4608C80.3066 77.8949 80.6198 78.9702 81.246 79.6865C81.8723 80.3999 82.8855 80.7559 84.2886 80.7559C84.7967 80.7559 85.2427 80.713 85.6297 80.6259C86.0196 80.5358 86.3638 80.4752 86.6636 80.4427C87.0181 80.4162 87.315 80.5299 87.5557 80.7854C87.795 81.038 87.9161 81.552 87.9161 82.3274C87.9161 82.9226 87.8171 83.4529 87.6207 83.9166C87.4272 84.3775 87.0772 84.6965 86.5691 84.8737C86.1821 84.9948 85.677 85.1071 85.0507 85.2105C84.4245 85.3168 83.8706 85.37 83.3906 85.37Z" fill="#EDECE6"/>
<path d="M94.4035 85.37C92.8232 85.37 91.4141 85.0642 90.1734 84.4542C88.9357 83.8398 87.9668 83.0112 87.2667 81.967C86.5651 80.9242 86.2151 79.7441 86.2151 78.4281C86.2151 76.8182 86.6316 75.5435 87.4676 74.6057C88.3021 73.6648 89.6594 72.9854 91.5382 72.5674C93.4199 72.1509 95.9426 71.9412 99.1063 71.9412H101.339V75.161H99.1476C97.2999 75.161 95.8229 75.2526 94.7167 75.4328C93.6133 75.61 92.8291 75.9157 92.3653 76.3485C91.9045 76.7827 91.6741 77.3868 91.6741 78.1623C91.6741 79.1474 92.0167 79.9524 92.702 80.5786C93.3903 81.2048 94.3459 81.518 95.5674 81.518C96.5511 81.518 97.424 81.2876 98.1846 80.8267C98.9482 80.363 99.5523 79.7279 99.9984 78.9244C100.447 78.1179 100.672 77.1919 100.672 76.1476V71.0018C100.672 69.51 100.343 68.4363 99.6853 67.782C99.0265 67.1247 97.9247 66.7953 96.3768 66.7953C95.5098 66.7953 94.5763 66.9002 93.5764 67.1085C92.575 67.3182 91.5234 67.6756 90.4216 68.1837C89.8544 68.4525 89.3537 68.5264 88.9209 68.4082C88.4867 68.2871 88.15 68.0404 87.9107 67.6697C87.6744 67.296 87.5562 66.884 87.5562 66.4349C87.5562 65.9859 87.6744 65.5473 87.9107 65.1175C88.15 64.6847 88.5547 64.3642 89.1218 64.1545C90.4954 63.5873 91.8173 63.1856 93.0861 62.9493C94.3533 62.71 95.5098 62.5889 96.554 62.5889C98.7001 62.5889 100.467 62.9182 101.853 63.5755C103.243 64.2298 104.282 65.2209 104.967 66.5472C105.652 67.875 105.995 69.5839 105.995 71.6753V82.416C105.995 83.3421 105.77 84.051 105.321 84.5428C104.875 85.0347 104.236 85.2813 103.401 85.2813C102.565 85.2813 101.916 85.0347 101.452 84.5428C100.991 84.051 100.76 83.3421 100.76 82.416V80.2655H101.121C100.911 81.3097 100.501 82.2136 99.8861 82.9772C99.2746 83.7379 98.5066 84.3272 97.582 84.7437C96.6559 85.1602 95.5969 85.37 94.4035 85.37Z" fill="#EDECE6"/>
<path d="M116.961 85.2813C116.217 85.2813 115.568 85.0879 115.017 84.7024C114.465 84.3124 114.01 83.7143 113.653 82.9063L106.534 66.3936C106.265 65.7363 106.169 65.1234 106.244 64.5562C106.318 63.9891 106.587 63.5341 107.048 63.1915C107.511 62.8488 108.147 62.6775 108.95 62.6775C109.638 62.6775 110.192 62.8355 110.61 63.1501C111.027 63.4618 111.399 64.0511 111.727 64.9166L117.771 79.9996H116.429L122.651 64.8693C122.977 64.0348 123.357 63.4618 123.791 63.1501C124.224 62.8355 124.813 62.6775 125.557 62.6775C126.215 62.6775 126.736 62.8488 127.123 63.1915C127.513 63.5341 127.751 63.9817 127.838 64.5326C127.928 65.085 127.823 65.6891 127.525 66.3463L120.276 82.9063C119.948 83.7143 119.508 84.3124 118.952 84.7024C118.4 85.0879 117.737 85.2813 116.961 85.2813Z" fill="#EDECE6"/>
<path d="M137.868 85.37C135.599 85.37 133.629 84.9077 131.96 83.9816C130.29 83.057 128.991 81.7366 128.067 80.0233C127.141 78.307 126.678 76.2835 126.678 73.9558C126.678 72.1952 126.938 70.6222 127.458 69.2353C127.981 67.8455 128.736 66.6521 129.721 65.6551C130.705 64.6552 131.883 63.8945 133.254 63.3746C134.628 62.8518 136.167 62.5889 137.868 62.5889C140.137 62.5889 142.106 63.0526 143.776 63.9772C145.445 64.8989 146.743 66.2104 147.669 67.9119C148.594 69.6134 149.058 71.628 149.058 73.9558C149.058 75.7164 148.795 77.2982 148.272 78.6999C147.752 80.103 146.999 81.3038 146.015 82.3037C145.03 83.3051 143.85 84.0673 142.476 84.5901C141.106 85.11 139.57 85.37 137.868 85.37ZM137.868 81.1162C138.97 81.1162 139.939 80.8489 140.775 80.3127C141.609 79.7736 142.258 78.9746 142.719 77.9141C143.182 76.8551 143.416 75.5362 143.416 73.9558C143.416 71.569 142.908 69.7877 141.891 68.6091C140.878 67.4275 139.537 66.8367 137.868 66.8367C136.765 66.8367 135.794 67.0996 134.955 67.6224C134.119 68.1423 133.47 68.9325 133.006 69.9915C132.545 71.052 132.315 72.3724 132.315 73.9558C132.315 76.3116 132.823 78.0943 133.839 79.3025C134.855 80.5121 136.198 81.1162 137.868 81.1162Z" fill="#EDECE6"/>
<path d="M6.54173 124.611C5.55658 124.611 4.80184 124.351 4.27898 123.831C3.75465 123.309 3.49323 122.554 3.49323 121.569V96.0995C3.49323 95.1158 3.75465 94.3625 4.27898 93.8426C4.80184 93.3198 5.55658 93.0569 6.54173 93.0569H17.2824C19.4875 93.0569 21.3663 93.3863 22.9186 94.0435C24.4694 94.6978 25.6555 95.6372 26.4752 96.8616C27.2979 98.0831 27.71 99.5438 27.71 101.245C27.71 103.157 27.1561 104.769 26.0498 106.084C24.9465 107.396 23.44 108.276 21.5302 108.725V108.051C23.7398 108.379 25.4546 109.214 26.6761 110.556C27.9005 111.9 28.5134 113.646 28.5134 115.797C28.5134 118.601 27.5652 120.771 25.6717 122.307C23.7767 123.843 21.1433 124.611 17.7728 124.611H6.54173ZM8.99944 120.269H17.0579C19.0858 120.269 20.5761 119.876 21.5302 119.087C22.4873 118.296 22.9659 117.108 22.9659 115.525C22.9659 113.915 22.4873 112.722 21.5302 111.945C20.5761 111.169 19.0858 110.781 17.0579 110.781H8.99944V120.269ZM8.99944 106.438H16.2958C18.2646 106.438 19.7342 106.059 20.7031 105.298C21.675 104.539 22.1624 103.412 22.1624 101.919C22.1624 100.427 21.675 99.3001 20.7031 98.5395C19.7342 97.7803 18.2646 97.3992 16.2958 97.3992H8.99944V106.438Z" fill="#EDECE6"/>
<path d="M40.3786 125.06C38.11 125.06 36.1396 124.598 34.4707 123.672C32.8002 122.747 31.5019 121.427 30.5773 119.713C29.6512 117.997 29.1889 115.974 29.1889 113.646C29.1889 111.885 29.4489 110.312 29.9688 108.926C30.4916 107.536 31.2464 106.342 32.2315 105.345C33.2152 104.345 34.3938 103.585 35.7645 103.065C37.1381 102.542 38.6771 102.279 40.3786 102.279C42.6473 102.279 44.6161 102.743 46.2866 103.667C47.9556 104.589 49.2538 105.901 50.1799 107.602C51.1045 109.304 51.5683 111.318 51.5683 113.646C51.5683 115.407 51.3054 116.988 50.7825 118.39C50.2626 119.793 49.5094 120.994 48.5257 121.994C47.5405 122.995 46.3604 123.757 44.9868 124.28C43.6162 124.8 42.0801 125.06 40.3786 125.06ZM40.3786 120.806C41.4804 120.806 42.4494 120.539 43.2853 120.003C44.1198 119.464 44.7682 118.665 45.229 117.604C45.6928 116.545 45.9262 115.226 45.9262 113.646C45.9262 111.259 45.4181 109.478 44.4019 108.299C43.3887 107.118 42.0476 106.527 40.3786 106.527C39.2753 106.527 38.3049 106.79 37.466 107.313C36.63 107.833 35.9801 108.623 35.5164 109.682C35.0555 110.742 34.8251 112.063 34.8251 113.646C34.8251 116.002 35.3332 117.784 36.3494 118.993C37.3656 120.202 38.7081 120.806 40.3786 120.806Z" fill="#EDECE6"/>
<path d="M62.6214 125.06C60.6836 125.06 59.0648 124.731 57.7651 124.074C56.4683 123.417 55.5082 122.454 54.882 121.185C54.2557 119.918 53.9426 118.343 53.9426 116.464V106.929H51.6149C50.897 106.929 50.3447 106.744 49.9547 106.374C49.5692 106 49.3757 105.484 49.3757 104.826C49.3757 104.14 49.5692 103.619 49.9547 103.26C50.3447 102.903 50.897 102.722 51.6149 102.722H53.9426V98.6518C53.9426 97.7272 54.1878 97.0257 54.6811 96.5486C55.1729 96.073 55.8656 95.8337 56.7607 95.8337C57.6543 95.8337 58.3396 96.073 58.8167 96.5486C59.2967 97.0257 59.5374 97.7272 59.5374 98.6518V102.722H64.2815C64.9979 102.722 65.5488 102.903 65.9358 103.26C66.3257 103.619 66.5206 104.14 66.5206 104.826C66.5206 105.484 66.3257 106 65.9358 106.374C65.5488 106.744 64.9979 106.929 64.2815 106.929H59.5374V116.151C59.5374 117.585 59.8506 118.661 60.4768 119.377C61.103 120.09 62.1163 120.446 63.5194 120.446C64.0275 120.446 64.4735 120.403 64.8605 120.316C65.2504 120.226 65.5946 120.166 65.8944 120.133C66.2489 120.107 66.5458 120.22 66.7865 120.476C67.0258 120.728 67.1469 121.242 67.1469 122.018C67.1469 122.613 67.0479 123.143 66.8515 123.607C66.658 124.068 66.308 124.387 65.7999 124.564C65.4129 124.685 64.9078 124.798 64.2815 124.901C63.6553 125.007 63.1014 125.06 62.6214 125.06Z" fill="#EDECE6"/>
<path d="M76.9908 125.06C74.5124 125.06 72.3782 124.598 70.5866 123.672C68.7979 122.747 67.4199 121.433 66.451 119.731C65.4821 118.03 64.9977 116.015 64.9977 113.687C64.9977 111.423 65.4659 109.44 66.4037 107.738C67.3446 106.037 68.6429 104.701 70.2971 103.732C71.9543 102.764 73.8433 102.279 75.9628 102.279C77.5137 102.279 78.9079 102.533 80.1457 103.041C81.3863 103.546 82.4453 104.276 83.3241 105.233C84.2059 106.187 84.8779 107.342 85.3388 108.701C85.8025 110.057 86.0359 111.584 86.0359 113.286C86.0359 113.826 85.8483 114.237 85.4746 114.52C85.0995 114.804 84.5707 114.946 83.8854 114.946H69.5172V111.72H82.0953L81.3804 112.393C81.3804 111.02 81.1766 109.871 80.7719 108.949C80.3702 108.025 79.7882 107.316 79.0291 106.822C78.2684 106.33 77.3217 106.084 76.1873 106.084C74.9348 106.084 73.867 106.376 72.9852 106.958C72.1064 107.537 71.4344 108.357 70.9706 109.416C70.5098 110.476 70.2794 111.736 70.2794 113.197V113.51C70.2794 115.956 70.8524 117.784 71.9986 118.993C73.1477 120.202 74.8418 120.806 77.0794 120.806C77.8548 120.806 78.7277 120.71 79.6967 120.517C80.6685 120.325 81.5887 119.988 82.4557 119.507C83.0819 119.149 83.6328 118.993 84.1099 119.04C84.5855 119.084 84.9666 119.256 85.2501 119.554C85.5337 119.854 85.705 120.22 85.7641 120.653C85.8232 121.083 85.7405 121.521 85.516 121.97C85.2944 122.419 84.9149 122.808 84.3758 123.134C83.3315 123.793 82.1307 124.279 80.7719 124.593C79.416 124.904 78.1562 125.06 76.9908 125.06Z" fill="#EDECE6"/>
<path d="M97.3153 133.113C95.7039 133.113 94.1442 132.962 92.6362 132.664C91.1267 132.368 89.7619 131.907 88.542 131.281C87.9748 130.981 87.5922 130.622 87.3958 130.206C87.2023 129.788 87.1432 129.363 87.2186 128.93C87.2924 128.496 87.4726 128.116 87.7562 127.79C88.0398 127.462 88.3898 127.237 88.8078 127.116C89.2243 126.998 89.6586 127.059 90.1076 127.299C91.4191 127.952 92.6628 128.376 93.8414 128.569C95.023 128.766 96.0303 128.865 96.8663 128.865C98.8661 128.865 100.365 128.377 101.362 127.406C102.362 126.437 102.863 124.997 102.863 123.087V119.064H103.265C102.819 120.585 101.888 121.799 100.47 122.709C99.0522 123.619 97.4467 124.074 95.6551 124.074C93.6848 124.074 91.97 123.619 90.5093 122.709C89.0471 121.799 87.9128 120.526 87.1063 118.886C86.3028 117.244 85.9011 115.334 85.9011 113.156C85.9011 111.513 86.1315 110.029 86.5923 108.701C87.0561 107.375 87.7148 106.234 88.5656 105.28C89.4163 104.323 90.4443 103.585 91.6495 103.065C92.8577 102.542 94.1929 102.279 95.6551 102.279C97.5058 102.279 99.1246 102.734 100.511 103.644C101.901 104.554 102.805 105.756 103.223 107.248L102.774 108.364V105.186C102.774 104.261 103.019 103.56 103.513 103.083C104.005 102.607 104.684 102.368 105.551 102.368C106.445 102.368 107.13 102.607 107.607 103.083C108.083 103.56 108.322 104.261 108.322 105.186V122.419C108.322 125.967 107.382 128.636 105.504 130.425C103.625 132.216 100.895 133.113 97.3153 133.113ZM97.1794 119.82C98.3447 119.82 99.3447 119.552 100.181 119.016C101.015 118.482 101.664 117.714 102.124 116.712C102.588 115.712 102.821 114.526 102.821 113.156C102.821 111.097 102.313 109.478 101.297 108.299C100.281 107.118 98.9075 106.527 97.1794 106.527C96.017 106.527 95.0171 106.797 94.1781 107.336C93.3422 107.872 92.6923 108.633 92.2285 109.617C91.7677 110.602 91.5373 111.782 91.5373 113.156C91.5373 115.212 92.0454 116.836 93.0615 118.03C94.0777 119.223 95.4498 119.82 97.1794 119.82Z" fill="#EDECE6"/>
<path d="M117.993 125.06C116.412 125.06 115.003 124.754 113.762 124.144C112.525 123.53 111.556 122.701 110.856 121.657C110.154 120.614 109.804 119.434 109.804 118.118C109.804 116.508 110.221 115.234 111.057 114.296C111.891 113.355 113.248 112.676 115.127 112.258C117.009 111.841 119.532 111.631 122.695 111.631H124.929V114.851H122.737C120.889 114.851 119.412 114.943 118.306 115.123C117.202 115.3 116.418 115.606 115.954 116.039C115.494 116.473 115.263 117.077 115.263 117.852C115.263 118.838 115.606 119.643 116.291 120.269C116.979 120.895 117.935 121.208 119.156 121.208C120.14 121.208 121.013 120.978 121.774 120.517C122.537 120.053 123.141 119.418 123.587 118.615C124.036 117.808 124.261 116.882 124.261 115.838V110.692C124.261 109.2 123.932 108.126 123.274 107.472C122.616 106.815 121.514 106.486 119.966 106.486C119.099 106.486 118.165 106.59 117.165 106.799C116.164 107.008 115.112 107.366 114.011 107.874C113.443 108.143 112.943 108.217 112.51 108.098C112.076 107.977 111.739 107.731 111.5 107.36C111.263 106.986 111.145 106.574 111.145 106.125C111.145 105.676 111.263 105.237 111.5 104.808C111.739 104.375 112.144 104.054 112.711 103.845C114.084 103.277 115.406 102.876 116.675 102.639C117.942 102.4 119.099 102.279 120.143 102.279C122.289 102.279 124.056 102.608 125.443 103.266C126.832 103.92 127.871 104.911 128.556 106.237C129.241 107.565 129.584 109.274 129.584 111.365V122.106C129.584 123.032 129.359 123.741 128.91 124.233C128.464 124.725 127.825 124.972 126.99 124.972C126.154 124.972 125.505 124.725 125.041 124.233C124.58 123.741 124.35 123.032 124.35 122.106V119.956H124.71C124.5 121 124.09 121.904 123.475 122.667C122.864 123.428 122.096 124.017 121.171 124.434C120.245 124.85 119.186 125.06 117.993 125.06Z" fill="#EDECE6"/>
</g>
</g>
<mask id="mask3_69_491" style="mask-type:luminance" maskUnits="userSpaceOnUse" x="0" y="130" width="147" height="22">
<path d="M0.0369415 130.448H146.706V151.839H0.0369415V130.448Z" fill="white"/>
</mask>
<g mask="url(#mask3_69_491)">
<mask id="mask4_69_491" style="mask-type:luminance" maskUnits="userSpaceOnUse" x="0" y="130" width="147" height="22">
<path d="M146.706 130.448H-6.86646e-05V152H146.706V130.448Z" fill="white"/>
</mask>
<g mask="url(#mask4_69_491)">
<path d="M1.88033 146.384C1.6706 146.384 1.51551 146.328 1.4136 146.219C1.31021 146.105 1.25999 145.944 1.25999 145.734V139.271C1.25999 139.067 1.31021 138.91 1.4136 138.804C1.51551 138.695 1.66469 138.639 1.86261 138.639C2.05905 138.639 2.21118 138.695 2.31752 138.804C2.42682 138.91 2.48294 139.067 2.48294 139.271V140.636L2.31161 140.423C2.50805 139.844 2.8256 139.398 3.26279 139.082C3.70294 138.767 4.22874 138.609 4.84022 138.609C5.47828 138.609 5.99522 138.761 6.39401 139.064C6.79132 139.368 7.05718 139.841 7.19159 140.482H6.96118C7.1458 139.903 7.47812 139.447 7.95962 139.111C8.43964 138.778 9.0009 138.609 9.64339 138.609C10.2106 138.609 10.6773 138.718 11.0436 138.934C11.4099 139.151 11.6846 139.481 11.8707 139.921C12.0597 140.358 12.1543 140.912 12.1543 141.581V145.734C12.1543 145.944 12.0981 146.105 11.9888 146.219C11.8781 146.328 11.72 146.384 11.5162 146.384C11.3183 146.384 11.1647 146.328 11.0554 146.219C10.949 146.105 10.8959 145.944 10.8959 145.734V141.646C10.8959 140.953 10.7748 140.445 10.5355 140.122C10.2992 139.795 9.89743 139.631 9.33027 139.631C8.71141 139.631 8.22253 139.847 7.86509 140.275C7.51062 140.701 7.33338 141.282 7.33338 142.018V145.734C7.33338 145.944 7.27725 146.105 7.16795 146.219C7.06161 146.328 6.90357 146.384 6.69532 146.384C6.4974 146.384 6.34379 146.328 6.2345 146.219C6.12815 146.105 6.07498 145.944 6.07498 145.734V141.646C6.07498 140.953 5.95239 140.445 5.70869 140.122C5.46794 139.795 5.06767 139.631 4.50937 139.631C3.89051 139.631 3.40163 139.847 3.0442 140.275C2.68972 140.701 2.51248 141.282 2.51248 142.018V145.734C2.51248 146.168 2.30127 146.384 1.88033 146.384Z" fill="#EDECE6"/>
<path d="M16.7244 146.42C15.9283 146.42 15.243 146.263 14.6684 145.947C14.0968 145.632 13.6537 145.185 13.3391 144.606C13.023 144.027 12.8665 143.334 12.8665 142.526C12.8665 141.743 13.0201 141.06 13.3273 140.476C13.6375 139.89 14.0628 139.433 14.6034 139.105C15.147 138.775 15.7747 138.609 16.4881 138.609C16.9961 138.609 17.4511 138.695 17.8528 138.863C18.2575 139.033 18.6031 139.28 18.8867 139.602C19.1703 139.921 19.3859 140.309 19.5366 140.766C19.6857 141.219 19.7611 141.729 19.7611 142.296C19.7611 142.461 19.7138 142.584 19.6193 142.662C19.5277 142.737 19.3948 142.774 19.2175 142.774H13.8236V141.953H18.9221L18.674 142.154C18.674 141.599 18.5913 141.129 18.4259 140.742C18.2604 140.352 18.0197 140.055 17.7051 139.85C17.389 139.642 16.9961 139.537 16.5235 139.537C15.9947 139.537 15.5487 139.659 15.1824 139.903C14.8161 140.144 14.5384 140.479 14.3494 140.907C14.1633 141.337 14.0717 141.835 14.0717 142.402V142.497C14.0717 143.446 14.3021 144.169 14.7629 144.665C15.2238 145.161 15.8766 145.409 16.7244 145.409C17.0744 145.409 17.423 145.365 17.7701 145.273C18.1157 145.179 18.4554 145.024 18.7863 144.807C18.928 144.712 19.058 144.669 19.1762 144.677C19.2973 144.681 19.3948 144.717 19.4657 144.783C19.5366 144.851 19.5853 144.934 19.6134 145.031C19.64 145.13 19.6311 145.236 19.5838 145.35C19.5366 145.461 19.445 145.557 19.3121 145.64C18.9694 145.888 18.5647 146.081 18.1009 146.219C17.6357 146.352 17.1763 146.42 16.7244 146.42ZM17.002 137.664C16.9267 137.767 16.8381 137.826 16.7362 137.841C16.6328 137.857 16.5353 137.841 16.4408 137.794C16.3492 137.747 16.2828 137.679 16.2399 137.587C16.2 137.493 16.2104 137.383 16.2695 137.256L17.5751 134.734C17.646 134.589 17.7376 134.496 17.8528 134.456C17.9665 134.413 18.0832 134.406 18.2014 134.432C18.3195 134.456 18.42 134.509 18.5027 134.592C18.5854 134.674 18.6341 134.773 18.6504 134.887C18.6651 135.002 18.6326 135.121 18.5499 135.242L17.002 137.664Z" fill="#EDECE6"/>
<path d="M23.2804 146.419C22.6069 146.419 22.0191 146.26 21.5198 145.941C21.0191 145.619 20.6307 145.165 20.356 144.582C20.0842 144 19.9483 143.31 19.9483 142.514C19.9483 141.708 20.0842 141.012 20.356 140.429C20.6307 139.847 21.0191 139.398 21.5198 139.082C22.0191 138.767 22.6069 138.609 23.2804 138.609C23.9613 138.609 24.5447 138.78 25.0292 139.123C25.5136 139.463 25.8386 139.921 26.004 140.5H25.8326V135.88C25.8326 135.676 25.8858 135.518 25.9922 135.407C26.1015 135.298 26.261 135.241 26.4707 135.241C26.6671 135.241 26.8193 135.298 26.9256 135.407C27.0349 135.518 27.091 135.676 27.091 135.88V145.734C27.091 145.944 27.0379 146.105 26.9315 146.218C26.8281 146.328 26.6745 146.384 26.4707 146.384C26.2728 146.384 26.1192 146.328 26.0099 146.218C25.9035 146.105 25.8504 145.944 25.8504 145.734V144.263L26.0217 144.482C25.8563 145.069 25.5269 145.539 25.0351 145.894C24.5462 146.245 23.9613 146.419 23.2804 146.419ZM23.5404 145.409C24.0041 145.409 24.4118 145.297 24.7633 145.072C25.1178 144.845 25.3895 144.514 25.5786 144.08C25.7706 143.643 25.8681 143.121 25.8681 142.514C25.8681 141.573 25.6569 140.854 25.2359 140.358C24.818 139.861 24.2523 139.613 23.5404 139.613C23.0677 139.613 22.6571 139.726 22.3115 139.95C21.9644 140.172 21.6941 140.497 21.5021 140.925C21.3131 141.355 21.2185 141.885 21.2185 142.514C21.2185 143.445 21.4283 144.16 21.8507 144.659C22.2761 145.159 22.8388 145.409 23.5404 145.409Z" fill="#EDECE6"/>
<path d="M28.9016 146.354C28.6963 146.354 28.5412 146.295 28.4349 146.177C28.3315 146.059 28.2813 145.892 28.2813 145.675V139.336C28.2813 139.12 28.3315 138.955 28.4349 138.84C28.5412 138.726 28.6963 138.668 28.9016 138.668C29.0981 138.668 29.2531 138.726 29.3683 138.84C29.4821 138.955 29.5397 139.12 29.5397 139.336V145.675C29.5397 145.892 29.4836 146.059 29.3743 146.177C29.2679 146.295 29.1099 146.354 28.9016 146.354ZM28.9016 136.931C28.6446 136.931 28.4438 136.863 28.299 136.725C28.1528 136.587 28.0804 136.398 28.0804 136.157C28.0804 135.909 28.1528 135.723 28.299 135.596C28.4438 135.466 28.6446 135.401 28.9016 135.401C29.169 135.401 29.3713 135.466 29.5101 135.596C29.6519 135.723 29.7228 135.909 29.7228 136.157C29.7228 136.398 29.6519 136.587 29.5101 136.725C29.3713 136.863 29.169 136.931 28.9016 136.931Z" fill="#EDECE6"/>
<path d="M33.9104 146.419C33.1542 146.419 32.5013 146.254 31.9548 145.923C31.4069 145.592 30.9859 145.13 30.6905 144.535C30.3981 143.941 30.2534 143.251 30.2534 142.467C30.2534 141.869 30.3361 141.331 30.5015 140.854C30.6669 140.379 30.9091 139.972 31.2282 139.637C31.5472 139.303 31.9312 139.049 32.3802 138.875C32.8292 138.698 33.3388 138.609 33.9104 138.609C34.2796 138.609 34.6666 138.667 35.0683 138.78C35.473 138.891 35.8423 139.086 36.1731 139.365C36.275 139.441 36.3415 139.529 36.374 139.631C36.405 139.735 36.405 139.835 36.374 139.933C36.3415 140.031 36.2883 140.114 36.2145 140.181C36.1436 140.249 36.052 140.287 35.9427 140.299C35.8364 140.308 35.7256 140.269 35.6119 140.187C35.3431 139.983 35.0698 139.838 34.7907 139.755C34.51 139.673 34.2427 139.631 33.9872 139.631C33.5854 139.631 33.2324 139.696 32.9297 139.826C32.6298 139.953 32.3758 140.136 32.1675 140.376C31.9622 140.612 31.8042 140.906 31.6949 141.256C31.5886 141.607 31.5354 142.015 31.5354 142.479C31.5354 143.381 31.7451 144.092 32.1675 144.612C32.5929 145.132 33.1985 145.391 33.9872 145.391C34.2427 145.391 34.5071 145.353 34.7789 145.273C35.0536 145.191 35.3312 145.046 35.6119 144.836C35.7256 144.753 35.8334 144.718 35.9368 144.73C36.0432 144.739 36.1318 144.776 36.2027 144.842C36.2736 144.91 36.3208 144.996 36.3445 145.102C36.371 145.205 36.3696 145.306 36.3386 145.403C36.3105 145.502 36.244 145.586 36.1377 145.657C35.8068 145.926 35.4435 146.121 35.0506 146.242C34.6607 146.36 34.2796 146.419 33.9104 146.419Z" fill="#EDECE6"/>
<path d="M39.858 146.419C39.1254 146.419 38.4888 146.26 37.9497 145.941C37.4136 145.619 36.9985 145.165 36.7031 144.582C36.4107 144 36.266 143.31 36.266 142.514C36.266 141.912 36.3487 141.373 36.5141 140.896C36.6795 140.415 36.9217 140.003 37.2408 139.661C37.5598 139.318 37.9379 139.058 38.3751 138.881C38.8152 138.701 39.31 138.609 39.858 138.609C40.5906 138.609 41.2242 138.769 41.7604 139.088C42.2995 139.407 42.7175 139.86 43.0129 140.447C43.3082 141.03 43.4559 141.72 43.4559 142.514C43.4559 143.114 43.3732 143.652 43.2078 144.127C43.0424 144.6 42.7972 145.01 42.4752 145.356C42.1562 145.703 41.7751 145.967 41.335 146.148C40.8978 146.328 40.4045 146.419 39.858 146.419ZM39.858 145.409C40.3218 145.409 40.7294 145.297 41.0809 145.072C41.4354 144.845 41.7072 144.514 41.8962 144.08C42.0883 143.643 42.1857 143.121 42.1857 142.514C42.1857 141.573 41.9745 140.854 41.5536 140.358C41.1356 139.862 40.5699 139.613 39.858 139.613C39.3854 139.613 38.9748 139.726 38.6291 139.95C38.2821 140.172 38.0118 140.497 37.8198 140.925C37.6307 141.355 37.5362 141.885 37.5362 142.514C37.5362 143.445 37.7459 144.16 38.1683 144.659C38.5937 145.16 39.1564 145.409 39.858 145.409Z" fill="#EDECE6"/>
<path d="M50.2125 146.419C49.4563 146.419 48.8035 146.254 48.257 145.923C47.709 145.592 47.2881 145.13 46.9927 144.535C46.7002 143.941 46.5555 143.251 46.5555 142.467C46.5555 141.869 46.6382 141.331 46.8036 140.854C46.9691 140.379 47.2113 139.972 47.5303 139.637C47.8493 139.303 48.2334 139.049 48.6824 138.875C49.1314 138.698 49.6409 138.609 50.2125 138.609C50.5818 138.609 50.9687 138.667 51.3705 138.78C51.7752 138.891 52.1444 139.086 52.4753 139.365C52.5772 139.441 52.6436 139.529 52.6761 139.631C52.7072 139.735 52.7072 139.835 52.6761 139.933C52.6436 140.031 52.5905 140.114 52.5166 140.181C52.4457 140.249 52.3542 140.287 52.2449 140.299C52.1385 140.308 52.0277 140.269 51.914 140.187C51.6452 139.983 51.372 139.838 51.0928 139.755C50.8122 139.673 50.5448 139.631 50.2893 139.631C49.8876 139.631 49.5346 139.696 49.2318 139.826C48.932 139.953 48.6779 140.136 48.4697 140.376C48.2644 140.612 48.1063 140.906 47.997 141.256C47.8907 141.607 47.8375 142.015 47.8375 142.479C47.8375 143.381 48.0473 144.092 48.4697 144.612C48.895 145.132 49.5006 145.391 50.2893 145.391C50.5448 145.391 50.8092 145.353 51.081 145.273C51.3557 145.191 51.6334 145.046 51.914 144.836C52.0277 144.753 52.1356 144.718 52.239 144.73C52.3453 144.739 52.4339 144.776 52.5048 144.842C52.5757 144.91 52.623 144.996 52.6466 145.102C52.6732 145.205 52.6717 145.306 52.6407 145.403C52.6126 145.502 52.5462 145.586 52.4398 145.657C52.109 145.926 51.7456 146.121 51.3528 146.242C50.9628 146.36 50.5818 146.419 50.2125 146.419Z" fill="#EDECE6"/>
<path d="M56.1601 146.419C55.4275 146.419 54.7909 146.26 54.2518 145.941C53.7157 145.619 53.3006 145.165 53.0052 144.582C52.7128 144 52.5681 143.31 52.5681 142.514C52.5681 141.912 52.6508 141.373 52.8162 140.896C52.9816 140.415 53.2238 140.003 53.5429 139.661C53.8619 139.318 54.24 139.058 54.6772 138.881C55.1173 138.701 55.6121 138.609 56.1601 138.609C56.8927 138.609 57.5263 138.769 58.0625 139.088C58.6016 139.407 59.0195 139.86 59.3149 140.447C59.6103 141.03 59.758 141.72 59.758 142.514C59.758 143.114 59.6753 143.652 59.5099 144.127C59.3445 144.6 59.0993 145.01 58.7773 145.356C58.4583 145.703 58.0772 145.967 57.6371 146.148C57.1999 146.328 56.7066 146.419 56.1601 146.419ZM56.1601 145.409C56.6239 145.409 57.0315 145.297 57.383 145.072C57.7375 144.845 58.0093 144.514 58.1983 144.08C58.3903 143.643 58.4878 143.121 58.4878 142.514C58.4878 141.573 58.2766 140.854 57.8557 140.358C57.4377 139.862 56.872 139.613 56.1601 139.613C55.6875 139.613 55.2769 139.726 54.9312 139.95C54.5841 140.172 54.3139 140.497 54.1218 140.925C53.9328 141.355 53.8383 141.885 53.8383 142.514C53.8383 143.445 54.048 144.16 54.4704 144.659C54.8958 145.16 55.4585 145.409 56.1601 145.409Z" fill="#EDECE6"/>
<path d="M62.7808 146.419C62.0364 146.419 61.4663 146.193 61.0734 145.74C60.6791 145.284 60.4827 144.632 60.4827 143.784V135.88C60.4827 135.676 60.5329 135.518 60.6363 135.407C60.7426 135.298 60.8977 135.241 61.103 135.241C61.2994 135.241 61.4545 135.298 61.5697 135.407C61.6834 135.518 61.741 135.676 61.741 135.88V143.69C61.741 144.25 61.8503 144.668 62.0719 144.942C62.2964 145.214 62.6243 145.35 63.0585 145.35C63.1486 145.35 63.2299 145.344 63.3007 145.332C63.3746 145.32 63.4484 145.315 63.5193 145.315C63.6331 145.307 63.7143 145.335 63.7616 145.397C63.8088 145.456 63.8325 145.579 63.8325 145.764C63.8325 145.953 63.7911 146.094 63.7084 146.189C63.6257 146.279 63.4913 146.34 63.3067 146.372C63.2239 146.379 63.1353 146.39 63.0408 146.402C62.9492 146.413 62.8636 146.419 62.7808 146.419Z" fill="#EDECE6"/>
<path d="M67.0386 146.419C66.306 146.419 65.6694 146.26 65.1303 145.941C64.5942 145.619 64.1791 145.165 63.8837 144.582C63.5913 144 63.4465 143.31 63.4465 142.514C63.4465 141.912 63.5293 141.373 63.6947 140.896C63.8601 140.415 64.1023 140.003 64.4214 139.661C64.7404 139.318 65.1185 139.058 65.5557 138.881C65.9958 138.701 66.4906 138.609 67.0386 138.609C67.7712 138.609 68.4048 138.769 68.941 139.088C69.4801 139.407 69.898 139.86 70.1934 140.447C70.4888 141.03 70.6365 141.72 70.6365 142.514C70.6365 143.114 70.5538 143.652 70.3884 144.127C70.223 144.6 69.9778 145.01 69.6558 145.356C69.3368 145.703 68.9557 145.967 68.5156 146.148C68.0784 146.328 67.5851 146.419 67.0386 146.419ZM67.0386 145.409C67.5024 145.409 67.91 145.297 68.2615 145.072C68.616 144.845 68.8878 144.514 69.0768 144.08C69.2688 143.643 69.3663 143.121 69.3663 142.514C69.3663 141.573 69.1551 140.854 68.7342 140.358C68.3162 139.862 67.7505 139.613 67.0386 139.613C66.566 139.613 66.1553 139.726 65.8097 139.95C65.4626 140.172 65.1924 140.497 65.0003 140.925C64.8113 141.355 64.7168 141.885 64.7168 142.514C64.7168 143.445 64.9265 144.16 65.3489 144.659C65.7743 145.16 66.337 145.409 67.0386 145.409Z" fill="#EDECE6"/>
<path d="M71.9814 149.178C71.7761 149.178 71.621 149.122 71.5147 149.013C71.4113 148.902 71.3611 148.744 71.3611 148.54V139.271C71.3611 139.067 71.4113 138.91 71.5147 138.804C71.621 138.695 71.7717 138.639 71.9696 138.639C72.1734 138.639 72.33 138.695 72.4363 138.804C72.5456 138.91 72.6018 139.067 72.6018 139.271V140.748L72.4304 140.529C72.5959 139.938 72.9223 139.472 73.4112 139.129C73.903 138.783 74.4923 138.609 75.1776 138.609C75.8467 138.609 76.4316 138.767 76.9323 139.082C77.436 139.398 77.8244 139.847 78.0962 140.429C78.3709 141.012 78.5097 141.708 78.5097 142.514C78.5097 143.31 78.3709 144 78.0962 144.582C77.8244 145.165 77.4404 145.619 76.9441 145.941C76.4479 146.26 75.8585 146.419 75.1776 146.419C74.4923 146.419 73.9074 146.247 73.423 145.9C72.9385 145.554 72.6077 145.09 72.4304 144.511H72.6195V148.54C72.6195 148.744 72.5619 148.902 72.4482 149.013C72.333 149.122 72.1779 149.178 71.9814 149.178ZM74.9118 145.409C75.3874 145.409 75.798 145.297 76.1406 145.072C76.4863 144.845 76.7551 144.514 76.9441 144.08C77.1361 143.643 77.2336 143.121 77.2336 142.514C77.2336 141.573 77.0239 140.854 76.6074 140.358C76.1894 139.862 75.6237 139.613 74.9118 139.613C74.4465 139.613 74.0389 139.726 73.6888 139.95C73.3373 140.172 73.0655 140.497 72.8735 140.925C72.6845 141.355 72.59 141.885 72.59 142.514C72.59 143.445 72.7997 144.16 73.2221 144.659C73.6475 145.16 74.2102 145.409 74.9118 145.409Z" fill="#EDECE6"/>
<path d="M79.8713 146.384C79.6616 146.384 79.5021 146.328 79.3928 146.219C79.2864 146.105 79.2332 145.944 79.2332 145.734V139.271C79.2332 139.067 79.2835 138.91 79.3869 138.804C79.4932 138.695 79.6438 138.639 79.8418 138.639C80.0338 138.639 80.1859 138.695 80.2967 138.804C80.406 138.91 80.4621 139.067 80.4621 139.271V140.529H80.3026C80.468 139.919 80.7826 139.448 81.2479 139.117C81.7116 138.786 82.2847 138.612 82.9671 138.591C83.1236 138.58 83.2477 138.614 83.3393 138.692C83.4338 138.772 83.487 138.903 83.4988 139.088C83.5062 139.265 83.4633 139.405 83.3688 139.507C83.2772 139.611 83.134 139.671 82.9375 139.69L82.6894 139.72C81.9878 139.783 81.4487 140.009 81.0706 140.399C80.6925 140.786 80.5035 141.313 80.5035 141.983V145.734C80.5035 145.944 80.4473 146.105 80.338 146.219C80.2317 146.328 80.0751 146.384 79.8713 146.384Z" fill="#EDECE6"/>
<path d="M86.7499 146.419C86.0173 146.419 85.3807 146.26 84.8416 145.941C84.3055 145.619 83.8904 145.165 83.595 144.582C83.3026 144 83.1579 143.31 83.1579 142.514C83.1579 141.912 83.2406 141.373 83.406 140.896C83.5714 140.415 83.8136 140.003 84.1327 139.661C84.4517 139.318 84.8298 139.058 85.267 138.881C85.7071 138.701 86.2019 138.609 86.7499 138.609C87.4825 138.609 88.1161 138.769 88.6523 139.088C89.1914 139.407 89.6093 139.86 89.9047 140.447C90.2001 141.03 90.3478 141.72 90.3478 142.514C90.3478 143.114 90.2651 143.652 90.0997 144.127C89.9343 144.6 89.6891 145.01 89.3671 145.356C89.0481 145.703 88.667 145.967 88.2269 146.148C87.7897 146.328 87.2964 146.419 86.7499 146.419ZM86.7499 145.409C87.2137 145.409 87.6213 145.297 87.9728 145.072C88.3273 144.845 88.5991 144.514 88.7881 144.08C88.9801 143.643 89.0776 143.121 89.0776 142.514C89.0776 141.573 88.8664 140.854 88.4455 140.358C88.0275 139.862 87.4618 139.613 86.7499 139.613C86.2773 139.613 85.8667 139.726 85.521 139.95C85.1739 140.172 84.9037 140.497 84.7116 140.925C84.5226 141.355 84.4281 141.885 84.4281 142.514C84.4281 143.445 84.6378 144.16 85.0602 144.659C85.4856 145.16 86.0483 145.409 86.7499 145.409Z" fill="#EDECE6"/>
<path d="M94.2686 146.419C93.5124 146.419 92.8596 146.254 92.3131 145.923C91.7651 145.592 91.3442 145.13 91.0488 144.535C90.7563 143.941 90.6116 143.251 90.6116 142.467C90.6116 141.869 90.6943 141.331 90.8597 140.854C91.0252 140.379 91.2674 139.972 91.5864 139.637C91.9054 139.303 92.2895 139.049 92.7385 138.875C93.1875 138.698 93.697 138.609 94.2686 138.609C94.6379 138.609 95.0248 138.667 95.4266 138.78C95.8313 138.891 96.2005 139.086 96.5314 139.365C96.6333 139.441 96.6998 139.529 96.7322 139.631C96.7633 139.735 96.7633 139.835 96.7322 139.933C96.6998 140.031 96.6466 140.114 96.5727 140.181C96.5018 140.249 96.4103 140.287 96.301 140.299C96.1946 140.308 96.0838 140.269 95.9701 140.187C95.7013 139.983 95.4281 139.838 95.1489 139.755C94.8683 139.673 94.601 139.631 94.3454 139.631C93.9437 139.631 93.5907 139.696 93.2879 139.826C92.9881 139.953 92.734 140.136 92.5258 140.376C92.3205 140.612 92.1624 140.906 92.0531 141.256C91.9468 141.607 91.8936 142.015 91.8936 142.479C91.8936 143.381 92.1034 144.092 92.5258 144.612C92.9512 145.132 93.5567 145.391 94.3454 145.391C94.601 145.391 94.8653 145.353 95.1371 145.273C95.4118 145.191 95.6895 145.046 95.9701 144.836C96.0838 144.753 96.1917 144.718 96.2951 144.73C96.4014 144.739 96.49 144.776 96.5609 144.842C96.6318 144.91 96.6791 144.996 96.7027 145.102C96.7293 145.205 96.7278 145.306 96.6968 145.403C96.6687 145.502 96.6023 145.586 96.4959 145.657C96.1651 145.926 95.8017 146.121 95.4089 146.242C95.0189 146.36 94.6379 146.419 94.2686 146.419Z" fill="#EDECE6"/>
<path d="M100.11 146.419C99.5192 146.419 99.0244 146.313 98.6271 146.1C98.2283 145.887 97.9314 145.579 97.735 145.173C97.5415 144.763 97.4455 144.263 97.4455 143.672V139.72H96.4057C96.2284 139.72 96.0925 139.677 95.998 139.59C95.9079 139.504 95.8621 139.383 95.8621 139.229C95.8621 139.073 95.9079 138.952 95.998 138.869C96.0925 138.786 96.2284 138.745 96.4057 138.745H97.4455V136.966C97.4455 136.758 97.5001 136.6 97.6109 136.494C97.7246 136.384 97.8797 136.328 98.0776 136.328C98.2741 136.328 98.4262 136.384 98.5325 136.494C98.6418 136.6 98.698 136.758 98.698 136.966V138.745H100.653C100.826 138.745 100.958 138.786 101.049 138.869C101.144 138.952 101.191 139.073 101.191 139.229C101.191 139.383 101.144 139.504 101.049 139.59C100.958 139.677 100.826 139.72 100.653 139.72H98.698V143.548C98.698 144.139 98.822 144.588 99.0702 144.895C99.3183 145.199 99.7215 145.35 100.281 145.35C100.478 145.35 100.645 145.331 100.783 145.291C100.921 145.248 101.038 145.226 101.132 145.226C101.227 145.214 101.303 145.246 101.362 145.32C101.424 145.391 101.457 145.514 101.457 145.687C101.457 145.814 101.433 145.927 101.386 146.029C101.339 146.133 101.259 146.205 101.15 146.248C101.023 146.286 100.86 146.325 100.659 146.36C100.459 146.398 100.275 146.419 100.11 146.419Z" fill="#EDECE6"/>
<path d="M104.478 146.419C103.745 146.419 103.109 146.26 102.569 145.941C102.033 145.619 101.618 145.165 101.323 144.582C101.03 144 100.886 143.31 100.886 142.514C100.886 141.912 100.968 141.373 101.134 140.896C101.299 140.415 101.541 140.003 101.86 139.661C102.18 139.318 102.558 139.058 102.995 138.881C103.435 138.701 103.93 138.609 104.478 138.609C105.21 138.609 105.844 138.769 106.38 139.088C106.919 139.407 107.337 139.86 107.633 140.447C107.928 141.03 108.076 141.72 108.076 142.514C108.076 143.114 107.993 143.652 107.828 144.127C107.662 144.6 107.417 145.01 107.095 145.356C106.776 145.703 106.395 145.967 105.955 146.148C105.518 146.328 105.024 146.419 104.478 146.419ZM104.478 145.409C104.941 145.409 105.349 145.297 105.701 145.072C106.055 144.845 106.327 144.514 106.516 144.08C106.708 143.643 106.805 143.121 106.805 142.514C106.805 141.573 106.594 140.854 106.173 140.358C105.755 139.862 105.19 139.613 104.478 139.613C104.005 139.613 103.594 139.726 103.249 139.95C102.902 140.172 102.631 140.497 102.439 140.925C102.25 141.355 102.156 141.885 102.156 142.514C102.156 143.445 102.366 144.16 102.788 144.659C103.213 145.16 103.776 145.409 104.478 145.409Z" fill="#EDECE6"/>
<path d="M111.098 146.419C110.354 146.419 109.784 146.193 109.391 145.74C108.997 145.284 108.8 144.632 108.8 143.784V135.88C108.8 135.676 108.851 135.518 108.954 135.407C109.06 135.298 109.215 135.241 109.421 135.241C109.617 135.241 109.772 135.298 109.887 135.407C110.001 135.518 110.059 135.676 110.059 135.88V143.69C110.059 144.25 110.168 144.668 110.39 144.942C110.614 145.214 110.942 145.35 111.376 145.35C111.466 145.35 111.547 145.344 111.618 145.332C111.692 145.32 111.766 145.315 111.837 145.315C111.951 145.307 112.032 145.335 112.079 145.397C112.126 145.456 112.15 145.579 112.15 145.764C112.15 145.953 112.109 146.094 112.026 146.189C111.943 146.279 111.809 146.34 111.624 146.372C111.542 146.379 111.453 146.39 111.358 146.402C111.267 146.413 111.181 146.419 111.098 146.419Z" fill="#EDECE6"/>
<path d="M115.356 146.419C114.624 146.419 113.987 146.26 113.448 145.941C112.912 145.619 112.497 145.165 112.201 144.582C111.909 144 111.764 143.31 111.764 142.514C111.764 141.912 111.847 141.373 112.012 140.896C112.178 140.415 112.42 140.003 112.739 139.661C113.058 139.318 113.436 139.058 113.873 138.881C114.313 138.701 114.808 138.609 115.356 138.609C116.089 138.609 116.722 138.769 117.259 139.088C117.798 139.407 118.216 139.86 118.511 140.447C118.806 141.03 118.954 141.72 118.954 142.514C118.954 143.114 118.871 143.652 118.706 144.127C118.541 144.6 118.295 145.01 117.973 145.356C117.654 145.703 117.273 145.967 116.833 146.148C116.396 146.328 115.903 146.419 115.356 146.419ZM115.356 145.409C115.82 145.409 116.228 145.297 116.579 145.072C116.934 144.845 117.205 144.514 117.394 144.08C117.586 143.643 117.684 143.121 117.684 142.514C117.684 141.573 117.473 140.854 117.052 140.358C116.634 139.862 116.068 139.613 115.356 139.613C114.884 139.613 114.473 139.726 114.127 139.95C113.78 140.172 113.51 140.497 113.318 140.925C113.129 141.355 113.034 141.885 113.034 142.514C113.034 143.445 113.244 144.16 113.666 144.659C114.092 145.16 114.655 145.409 115.356 145.409Z" fill="#EDECE6"/>
<path d="M123.011 149.208C122.463 149.208 121.927 149.143 121.404 149.013C120.884 148.883 120.413 148.678 119.992 148.399C119.865 148.328 119.785 148.241 119.75 148.139C119.714 148.035 119.705 147.935 119.726 147.837C119.745 147.738 119.791 147.65 119.862 147.572C119.936 147.492 120.023 147.443 120.122 147.424C120.219 147.403 120.32 147.419 120.423 147.471C120.88 147.75 121.315 147.941 121.729 148.044C122.142 148.146 122.55 148.198 122.952 148.198C123.684 148.198 124.24 148 124.618 147.607C124.996 147.217 125.185 146.65 125.185 145.905V144.157H125.339C125.181 144.756 124.851 145.23 124.352 145.581C123.851 145.932 123.265 146.106 122.591 146.106C121.902 146.106 121.303 145.95 120.795 145.634C120.29 145.319 119.9 144.877 119.626 144.31C119.354 143.743 119.218 143.087 119.218 142.343C119.218 141.785 119.295 141.277 119.448 140.819C119.602 140.358 119.826 139.965 120.122 139.637C120.417 139.311 120.773 139.058 121.191 138.881C121.608 138.701 122.074 138.609 122.591 138.609C123.277 138.609 123.865 138.783 124.358 139.129C124.854 139.472 125.175 139.938 125.321 140.529L125.167 140.712V139.271C125.167 139.067 125.22 138.91 125.327 138.804C125.436 138.695 125.59 138.639 125.788 138.639C125.991 138.639 126.145 138.695 126.248 138.804C126.355 138.91 126.408 139.067 126.408 139.271V145.734C126.408 146.88 126.12 147.744 125.545 148.328C124.974 148.914 124.129 149.208 123.011 149.208ZM122.828 145.084C123.312 145.084 123.729 144.975 124.08 144.753C124.43 144.529 124.702 144.21 124.895 143.796C125.087 143.383 125.185 142.898 125.185 142.343C125.185 141.504 124.972 140.841 124.547 140.352C124.122 139.86 123.548 139.613 122.828 139.613C122.351 139.613 121.937 139.726 121.587 139.95C121.235 140.172 120.964 140.486 120.772 140.896C120.583 141.302 120.488 141.785 120.488 142.343C120.488 143.179 120.698 143.844 121.12 144.34C121.546 144.836 122.114 145.084 122.828 145.084Z" fill="#EDECE6"/>
<path d="M128.218 146.354C128.012 146.354 127.857 146.295 127.751 146.177C127.648 146.059 127.597 145.892 127.597 145.675V139.336C127.597 139.12 127.648 138.955 127.751 138.84C127.857 138.726 128.012 138.668 128.218 138.668C128.414 138.668 128.569 138.726 128.684 138.84C128.798 138.955 128.856 139.12 128.856 139.336V145.675C128.856 145.892 128.8 146.059 128.69 146.177C128.584 146.295 128.426 146.354 128.218 146.354ZM128.218 136.931C127.961 136.931 127.76 136.863 127.615 136.725C127.469 136.587 127.397 136.398 127.397 136.157C127.397 135.909 127.469 135.723 127.615 135.596C127.76 135.466 127.961 135.401 128.218 135.401C128.485 135.401 128.687 135.466 128.826 135.596C128.968 135.723 129.039 135.909 129.039 136.157C129.039 136.398 128.968 136.587 128.826 136.725C128.687 136.863 128.485 136.931 128.218 136.931Z" fill="#EDECE6"/>
<path d="M132.577 146.419C132.107 146.419 131.639 146.362 131.171 146.248C130.701 146.134 130.264 145.938 129.859 145.657C129.756 145.586 129.683 145.502 129.64 145.403C129.6 145.306 129.589 145.207 129.605 145.108C129.62 145.01 129.661 144.925 129.729 144.854C129.795 144.78 129.878 144.734 129.977 144.718C130.075 144.703 130.187 144.727 130.314 144.789C130.716 145.037 131.103 145.211 131.478 145.309C131.856 145.408 132.231 145.456 132.606 145.456C133.193 145.456 133.636 145.349 133.935 145.132C134.234 144.916 134.384 144.62 134.384 144.245C134.384 143.959 134.285 143.73 134.089 143.56C133.896 143.387 133.587 143.256 133.161 143.164L131.755 142.851C131.101 142.718 130.617 142.485 130.302 142.154C129.986 141.823 129.829 141.396 129.829 140.872C129.829 140.408 129.951 140.008 130.196 139.673C130.439 139.334 130.782 139.073 131.224 138.887C131.668 138.702 132.187 138.609 132.777 138.609C133.229 138.609 133.659 138.668 134.065 138.786C134.475 138.905 134.845 139.094 135.176 139.354C135.278 139.424 135.347 139.51 135.383 139.608C135.421 139.707 135.427 139.805 135.401 139.903C135.377 140.002 135.327 140.085 135.253 140.151C135.182 140.219 135.093 140.257 134.987 140.269C134.884 140.278 134.777 140.246 134.668 140.175C134.356 139.966 134.039 139.813 133.717 139.714C133.398 139.616 133.085 139.566 132.777 139.566C132.198 139.566 131.758 139.681 131.46 139.909C131.16 140.138 131.011 140.438 131.011 140.807C131.011 141.099 131.103 141.337 131.289 141.522C131.473 141.708 131.763 141.841 132.157 141.923L133.563 142.219C134.237 142.361 134.74 142.59 135.076 142.904C135.409 143.22 135.578 143.647 135.578 144.186C135.578 144.869 135.303 145.412 134.757 145.817C134.209 146.219 133.482 146.419 132.577 146.419Z" fill="#EDECE6"/>
<path d="M139.347 146.419C138.756 146.419 138.261 146.313 137.864 146.1C137.465 145.887 137.168 145.579 136.972 145.173C136.778 144.763 136.682 144.263 136.682 143.672V139.72H135.642C135.465 139.72 135.329 139.677 135.235 139.59C135.145 139.504 135.099 139.383 135.099 139.229C135.099 139.073 135.145 138.952 135.235 138.869C135.329 138.786 135.465 138.745 135.642 138.745H136.682V136.966C136.682 136.758 136.737 136.6 136.848 136.494C136.961 136.384 137.116 136.328 137.314 136.328C137.511 136.328 137.663 136.384 137.769 136.494C137.878 136.6 137.935 136.758 137.935 136.966V138.745H139.89C140.063 138.745 140.194 138.786 140.286 138.869C140.381 138.952 140.428 139.073 140.428 139.229C140.428 139.383 140.381 139.504 140.286 139.59C140.194 139.677 140.063 139.72 139.89 139.72H137.935V143.548C137.935 144.139 138.059 144.588 138.307 144.895C138.555 145.199 138.958 145.35 139.518 145.35C139.714 145.35 139.881 145.331 140.02 145.291C140.157 145.248 140.274 145.226 140.369 145.226C140.463 145.214 140.54 145.246 140.599 145.32C140.661 145.391 140.694 145.514 140.694 145.687C140.694 145.814 140.67 145.927 140.623 146.029C140.575 146.133 140.496 146.205 140.386 146.248C140.259 146.286 140.097 146.325 139.896 146.36C139.695 146.398 139.512 146.419 139.347 146.419Z" fill="#EDECE6"/>
<mask id="mask5_69_491" style="mask-type:luminance" maskUnits="userSpaceOnUse" x="139" y="138" width="8" height="9">
<path d="M139.9 138.388H146.61V146.706H139.9V138.388Z" fill="white"/>
</mask>
<g mask="url(#mask5_69_491)">
<path d="M142.958 146.419C142.441 146.419 141.979 146.319 141.57 146.118C141.159 145.914 140.837 145.637 140.601 145.285C140.365 144.935 140.246 144.544 140.246 144.109C140.246 143.551 140.388 143.111 140.672 142.792C140.955 142.473 141.424 142.247 142.078 142.113C142.735 141.975 143.633 141.906 144.772 141.906H145.469V142.727H144.784C143.948 142.727 143.291 142.767 142.811 142.845C142.329 142.925 141.992 143.056 141.8 143.241C141.611 143.427 141.517 143.69 141.517 144.033C141.517 144.455 141.661 144.801 141.954 145.072C142.249 145.341 142.651 145.474 143.159 145.474C143.573 145.474 143.936 145.377 144.252 145.179C144.567 144.982 144.813 144.715 144.991 144.375C145.171 144.033 145.262 143.64 145.262 143.194V141.427C145.262 140.786 145.132 140.322 144.872 140.039C144.615 139.755 144.194 139.613 143.608 139.613C143.245 139.613 142.883 139.661 142.521 139.755C142.158 139.847 141.777 139.996 141.375 140.204C141.229 140.275 141.105 140.299 141.003 140.275C140.899 140.249 140.817 140.192 140.755 140.11C140.691 140.027 140.654 139.933 140.642 139.826C140.633 139.717 140.657 139.611 140.713 139.507C140.772 139.405 140.864 139.323 140.991 139.259C141.443 139.032 141.892 138.866 142.338 138.763C142.782 138.661 143.206 138.609 143.608 138.609C144.258 138.609 144.793 138.715 145.215 138.928C145.64 139.138 145.955 139.457 146.16 139.885C146.369 140.315 146.473 140.864 146.473 141.534V145.734C146.473 145.944 146.423 146.105 146.326 146.219C146.227 146.328 146.085 146.384 145.9 146.384C145.702 146.384 145.553 146.328 145.451 146.219C145.348 146.105 145.298 145.944 145.298 145.734V144.529H145.434C145.351 144.919 145.193 145.254 144.961 145.533C144.728 145.814 144.441 146.032 144.098 146.189C143.759 146.343 143.379 146.419 142.958 146.419Z" fill="#EDECE6"/>
</g>
</g>
</g>
</g>
</svg>
