<svg width="68" height="60" viewBox="0 0 68 60" fill="none" xmlns="http://www.w3.org/2000/svg">
<path d="M48.9333 24.7C47.6333 26 45.4667 26 44.1667 24.7L29.2667 9.83335L5.76667 33.3L3.56667 31.2C1.694 29.325 0.642136 26.7834 0.642136 24.1334C0.642136 21.4833 1.694 18.9417 3.56667 17.0667L17.7 2.93335C19.575 1.06067 22.1167 0.00881231 24.7667 0.00881231C27.4167 0.00881231 29.9583 1.06067 31.8333 2.93335L48.9333 20C50.2333 21.3 50.2333 23.4 48.9333 24.7ZM51.2667 17.6334C53.8667 20.2334 53.8667 24.4667 51.2667 27.0667C47.0333 31.3 42.5667 27.8 41.8333 27.0667L29.3 14.5334L10.7333 33.1C10.4243 33.4084 10.1792 33.7747 10.0119 34.1779C9.84462 34.5812 9.75852 35.0135 9.75852 35.45C9.75852 35.8866 9.84462 36.3189 10.0119 36.7221C10.1792 37.1254 10.4243 37.4916 10.7333 37.8C12.0333 39.1 14.1333 39.1 15.4667 37.8L30.8667 22.4L33.2333 24.7667L17.8333 40.1667C17.5243 40.4751 17.2792 40.8414 17.1119 41.2446C16.9446 41.6479 16.8585 42.0801 16.8585 42.5167C16.8585 42.9533 16.9446 43.3855 17.1119 43.7888C17.2792 44.192 17.5243 44.5583 17.8333 44.8667C19.1333 46.1667 21.2333 46.1667 22.5667 44.8667L37.9667 29.4667L40.3333 31.8334L24.9333 47.2334C24.6247 47.542 24.3799 47.9083 24.2129 48.3116C24.0459 48.7148 23.9599 49.1469 23.9599 49.5834C23.9599 50.0198 24.0459 50.452 24.2129 50.8552C24.3799 51.2584 24.6247 51.6248 24.9333 51.9334C25.2419 52.242 25.6083 52.4868 26.0115 52.6538C26.4147 52.8208 26.8469 52.9068 27.2833 52.9068C27.7198 52.9068 28.1519 52.8208 28.5551 52.6538C28.9584 52.4868 29.3247 52.242 29.6333 51.9334L45.0333 36.5334L47.4 38.9L32 54.3C31.6914 54.6086 31.4466 54.975 31.2796 55.3782C31.1126 55.7814 31.0266 56.2136 31.0266 56.65C31.0266 57.0865 31.1126 57.5186 31.2796 57.9218C31.4466 58.3251 31.6914 58.6914 32 59C32.6233 59.6233 33.4686 59.9734 34.35 59.9734C34.7864 59.9734 35.2186 59.8875 35.6218 59.7205C36.025 59.5534 36.3914 59.3086 36.7 59L64.4333 31.2C66.306 29.325 67.3579 26.7834 67.3579 24.1334C67.3579 21.4833 66.306 18.9417 64.4333 17.0667L50.3 2.93335C48.4599 1.094 45.9754 0.0442326 43.3739 0.00689065C40.7724 -0.0304513 38.2588 0.947576 36.3667 2.73335L51.2667 17.6334Z" fill="#232C40"/>
</svg>
