<svg width="68" height="68" viewBox="0 0 68 68" fill="currentColor" xmlns="http://www.w3.org/2000/svg">
<path d="M53.1 34.0666L66.3667 20.7999C66.6757 20.4916 66.9209 20.1253 67.0881 19.722C67.2554 19.3188 67.3415 18.8865 67.3415 18.4499C67.3415 18.0134 67.2554 17.5811 67.0881 17.1778C66.9209 16.7746 66.6757 16.4083 66.3667 16.0999L51.9 1.63326C51.5916 1.32425 51.2253 1.07909 50.8221 0.911819C50.4189 0.744547 49.9866 0.658447 49.55 0.658447C49.1135 0.658447 48.6812 0.744547 48.2779 0.911819C47.8747 1.07909 47.5084 1.32425 47.2 1.63326L33.9334 14.8999L20.6667 1.63326C20.0421 1.01242 19.1973 0.663952 18.3167 0.663952C17.4361 0.663952 16.5912 1.01242 15.9667 1.63326L1.50002 16.0999C1.19101 16.4083 0.94585 16.7746 0.778579 17.1778C0.611307 17.5811 0.525208 18.0134 0.525208 18.4499C0.525208 18.8865 0.611307 19.3188 0.778579 19.722C0.94585 20.1253 1.19101 20.4916 1.50002 20.7999L14.7667 34.0666L1.50002 47.3333C1.19101 47.6416 0.94585 48.0079 0.778579 48.4112C0.611307 48.8144 0.525208 49.2467 0.525208 49.6833C0.525208 50.1198 0.611307 50.5521 0.778579 50.9553C0.94585 51.3586 1.19101 51.7249 1.50002 52.0333L15.9667 66.4999C17.2667 67.7999 19.3667 67.7999 20.6667 66.4999L33.9334 53.2333L47.2 66.4999C47.8667 67.1666 48.7 67.4666 49.5667 67.4666C50.4334 67.4666 51.2667 67.1333 51.9333 66.4999L66.4 52.0333C66.709 51.7249 66.9542 51.3586 67.1215 50.9553C67.2887 50.5521 67.3748 50.1198 67.3748 49.6833C67.3748 49.2467 67.2887 48.8144 67.1215 48.4112C66.9542 48.0079 66.709 47.6416 66.4 47.3333L53.1 34.0666ZM34 23.9999C35.8334 23.9999 37.3334 25.4999 37.3334 27.3333C37.3334 29.1666 35.8334 30.6666 34 30.6666C32.1667 30.6666 30.6667 29.1666 30.6667 27.3333C30.6667 25.4999 32.1667 23.9999 34 23.9999ZM18.3 30.5333L6.20002 18.4666L18.3 6.36659L30.3667 18.4333L18.3 30.5333ZM27.3334 37.3333C25.5 37.3333 24 35.8333 24 33.9999C24 32.1666 25.5 30.6666 27.3334 30.6666C29.1667 30.6666 30.6667 32.1666 30.6667 33.9999C30.6667 35.8333 29.1667 37.3333 27.3334 37.3333ZM34 43.9999C32.1667 43.9999 30.6667 42.4999 30.6667 40.6666C30.6667 38.8333 32.1667 37.3333 34 37.3333C35.8334 37.3333 37.3334 38.8333 37.3334 40.6666C37.3334 42.4999 35.8334 43.9999 34 43.9999ZM40.6667 30.6666C42.5 30.6666 44 32.1666 44 33.9999C44 35.8333 42.5 37.3333 40.6667 37.3333C38.8334 37.3333 37.3334 35.8333 37.3334 33.9999C37.3334 32.1666 38.8334 30.6666 40.6667 30.6666ZM49.5334 61.7999L37.4334 49.7333L49.5334 37.6333L61.6 49.6999L49.5334 61.7999Z" fill="#232C40"/>
</svg>
